<svg version="1.1" id="Layer_1" xmlns="http://www.w3.org/2000/svg" xmlns:xlink="http://www.w3.org/1999/xlink" x="0px" y="0px"
	 width="100%" viewBox="0 0 387 361" enable-background="new 0 0 387 361" xml:space="preserve">
<path fill="#FF0120" opacity="1.000000" stroke="none" 
	d="
M203.000000,362.000000 
	C138.979111,362.000000 74.958206,362.000000 10.743058,361.710388 
	C8.347513,359.314423 6.146224,357.208069 4.025466,354.673157 
	C3.738151,351.456696 3.050057,348.668915 3.048656,345.880798 
	C2.994246,237.584564 2.995996,129.288300 3.012193,20.992044 
	C3.013893,9.628521 8.836321,3.894615 20.289572,3.893723 
	C135.750046,3.884727 251.210693,3.976199 366.670654,3.730385 
	C376.551392,3.709349 383.697357,10.345836 383.631622,20.657995 
	C383.315155,70.305641 383.494568,119.956421 383.477112,169.606094 
	C383.476654,170.967239 383.240143,172.328308 383.057556,174.293411 
	C381.159637,172.819092 379.848267,171.848465 378.588654,170.814774 
	C358.499603,154.329315 338.450165,137.795303 318.322876,121.356697 
	C301.701202,107.781235 282.005524,109.188324 267.382599,124.722351 
	C263.774231,128.555542 259.789856,132.034805 254.568329,137.024033 
	C251.396179,133.266830 248.396591,128.983719 244.686859,125.445107 
	C227.606216,109.152481 207.325195,101.879662 183.871353,106.075340 
	C156.863937,110.906738 138.106552,126.592102 129.328903,152.530609 
	C120.416084,178.868576 126.232712,202.732269 145.010162,223.311493 
	C149.482086,228.212494 154.105820,232.974976 158.928223,238.085724 
	C155.601685,241.577560 151.956604,245.437897 148.274612,249.262711 
	C133.555008,264.553345 133.063324,283.938782 147.257080,299.884155 
	C165.754303,320.664001 184.411591,341.301331 203.000000,362.000000 
M348.548096,72.889778 
	C351.898163,69.470619 351.648010,66.281693 348.184082,63.018150 
	C344.431946,59.483063 340.851044,55.765335 337.216675,52.106236 
	C324.380219,39.182549 324.383667,39.179157 306.186798,39.630661 
	C306.020508,39.634789 305.853516,39.642506 305.687805,39.632668 
	C301.510468,39.384712 299.437195,41.541035 299.346619,45.536312 
	C299.222198,51.023052 299.095917,56.528065 299.430298,61.997131 
	C299.550201,63.958477 300.564331,66.259338 301.925232,67.684242 
	C308.817871,74.900993 315.983795,81.855873 323.001648,88.954208 
	C326.232819,92.222443 329.321075,92.125282 332.497314,88.930977 
	C337.658539,83.740372 342.845367,78.575195 348.548096,72.889778 
M69.498703,82.136742 
	C77.009750,80.429817 81.346634,75.508072 82.591370,68.167259 
	C83.749847,61.335213 81.066696,55.622913 75.384872,51.756100 
	C69.512390,47.759529 63.119755,47.772736 56.998611,51.242130 
	C50.315613,55.029972 47.297352,63.452324 49.641602,70.703110 
	C52.332687,79.026657 59.017906,83.080551 69.498703,82.136742 
z"/>
<path fill="#FFFDFD" opacity="1.000000" stroke="none" 
	d="
M203.468658,362.000000 
	C184.411591,341.301331 165.754303,320.664001 147.257080,299.884155 
	C133.063324,283.938782 133.555008,264.553345 148.274612,249.262711 
	C151.956604,245.437897 155.601685,241.577560 158.928223,238.085724 
	C154.105820,232.974976 149.482086,228.212494 145.010162,223.311493 
	C126.232712,202.732269 120.416084,178.868576 129.328903,152.530609 
	C138.106552,126.592102 156.863937,110.906738 183.871353,106.075340 
	C207.325195,101.879662 227.606216,109.152481 244.686859,125.445107 
	C248.396591,128.983719 251.396179,133.266830 254.568329,137.024033 
	C259.789856,132.034805 263.774231,128.555542 267.382599,124.722351 
	C282.005524,109.188324 301.701202,107.781235 318.322876,121.356697 
	C338.450165,137.795303 358.499603,154.329315 378.588654,170.814774 
	C379.848267,171.848465 381.159637,172.819092 383.057556,174.293411 
	C383.240143,172.328308 383.476654,170.967239 383.477112,169.606094 
	C383.494568,119.956421 383.315155,70.305641 383.631622,20.657995 
	C383.697357,10.345836 376.551392,3.709349 366.670654,3.730385 
	C251.210693,3.976199 135.750046,3.884727 20.289572,3.893723 
	C8.836321,3.894615 3.013893,9.628521 3.012193,20.992044 
	C2.995996,129.288300 2.994246,237.584564 3.048656,345.880798 
	C3.050057,348.668915 3.738151,351.456696 3.682909,354.512512 
	C2.506544,354.186920 1.753267,353.593475 0.999995,353.000000 
	C1.000000,239.312439 1.000000,125.624878 1.300926,11.758389 
	C4.902408,8.297843 8.205151,5.018385 11.477694,1.709063 
	C11.517138,1.669176 11.167839,1.244867 11.000000,1.000000 
	C133.020889,1.000000 255.041794,1.000000 377.241547,1.301560 
	C380.567993,4.809043 383.706116,8.024485 386.892090,11.191772 
	C387.045868,11.344634 387.621063,11.073627 388.000000,11.000000 
	C388.000000,124.354225 388.000000,237.708450 387.698425,351.241547 
	C384.190948,354.568024 380.975494,357.706146 377.808167,360.892181 
	C377.655304,361.045929 377.926331,361.621094 378.000000,362.000000 
	C319.979095,362.000000 261.958221,362.000000 203.468658,362.000000 
M222.053726,281.406891 
	C222.382339,280.338989 222.710953,279.271118 223.773865,277.992584 
	C230.239609,280.884644 236.752106,283.677338 243.160141,286.692078 
	C252.744186,291.200958 253.419098,291.137512 259.611694,282.722137 
	C260.240906,281.867065 260.614746,280.121735 260.171448,279.285522 
	C253.904617,267.463531 247.475769,255.727463 241.276657,243.266769 
	C243.140717,243.725113 245.145172,243.886963 246.845108,244.691910 
	C255.243637,248.668671 263.554993,252.829178 271.909821,256.898743 
	C280.937347,261.295990 280.859375,261.204590 287.766388,253.833542 
	C289.587250,251.890381 289.670380,250.496338 288.453064,248.239319 
	C282.463654,237.134506 276.661591,225.928757 270.753876,214.779587 
	C270.264771,213.856491 269.480927,213.089569 269.415222,213.004333 
	C266.281860,215.830246 263.354309,218.470490 260.300964,221.224228 
	C264.964874,229.100967 269.604309,236.936447 273.858765,245.106430 
	C273.729736,245.217148 273.600708,245.327850 272.837250,245.195068 
	C265.051086,240.875137 257.264923,236.555206 249.296677,232.134232 
	C245.314850,236.373535 241.715988,240.205109 237.493866,244.314987 
	C236.674744,245.144775 235.953552,246.111343 235.019226,246.780182 
	C231.400024,249.371002 231.708984,252.056625 234.043549,255.516968 
	C237.483704,260.615936 240.483124,266.015961 243.578262,271.341217 
	C244.296326,272.576691 244.643066,274.027985 245.300751,275.745911 
	C236.697372,270.919983 228.744675,266.459076 220.570129,261.873688 
	C217.551651,265.031860 214.733032,267.980896 211.914413,270.929962 
	C212.486191,270.967468 213.057968,271.004974 213.629730,271.042480 
	C214.068329,273.379578 214.506927,275.716705 214.248520,278.375732 
	C208.430664,282.136108 206.711395,287.525513 207.542725,294.203369 
	C207.950806,297.481476 207.613464,300.852417 207.613464,304.181335 
	C207.613464,308.076965 207.613464,311.972595 207.613464,316.131500 
	C212.514221,316.131500 216.507675,315.917358 220.466766,316.194305 
	C224.112473,316.449310 225.026596,314.935059 224.931320,311.554413 
	C224.729767,304.402893 225.131165,297.227356 224.736801,290.091949 
	C224.586807,287.378082 222.930313,284.747467 222.053726,281.406891 
M208.004608,142.328278 
	C205.913605,141.789505 203.849304,141.089920 201.727310,140.737869 
	C187.239380,138.334122 175.244400,142.827393 166.835892,154.848495 
	C158.592926,166.632935 157.489166,179.740128 165.129364,191.964691 
	C169.838074,199.498764 177.031265,205.480072 183.435593,212.517410 
	C200.116714,195.087952 215.946289,178.548248 232.823334,160.914078 
	C224.435669,154.557587 216.574890,148.600403 208.004608,142.328278 
M293.548492,228.950699 
	C296.636780,231.893341 299.725098,234.835983 303.310333,238.252121 
	C308.149353,232.609741 313.132660,227.843277 316.842438,222.234467 
	C322.764069,213.281708 319.999969,202.973694 310.449707,195.015945 
	C302.266113,188.196960 293.356598,188.255646 285.188141,195.384750 
	C280.701813,199.300247 276.433624,203.465683 273.088745,206.570190 
	C280.298431,214.477310 286.671112,221.466461 293.548492,228.950699 
z"/>
<path fill="#000000" opacity="1.000000" stroke="none" 
	d="
M388.000000,10.513435 
	C387.621063,11.073627 387.045868,11.344634 386.892090,11.191772 
	C383.706116,8.024485 380.567993,4.809043 377.710205,1.301560 
	C381.252441,1.000000 384.504913,1.000000 388.000000,1.000000 
	C388.000000,4.006597 388.000000,7.016734 388.000000,10.513435 
z"/>
<path fill="#000000" opacity="1.000000" stroke="none" 
	d="
M378.486542,362.000000 
	C377.926331,361.621094 377.655304,361.045929 377.808167,360.892181 
	C380.975494,357.706146 384.190948,354.568024 387.698425,351.710205 
	C388.000000,355.252472 388.000000,358.504913 388.000000,362.000000 
	C384.993408,362.000000 381.983246,362.000000 378.486542,362.000000 
z"/>
<path fill="#000000" opacity="1.000000" stroke="none" 
	d="
M10.513435,1.000000 
	C11.167839,1.244867 11.517138,1.669176 11.477694,1.709063 
	C8.205151,5.018385 4.902408,8.297843 1.300926,11.289732 
	C1.000000,7.747543 1.000000,4.495087 1.000000,1.000000 
	C4.006597,1.000000 7.016734,1.000000 10.513435,1.000000 
z"/>
<path fill="#000000" opacity="1.000000" stroke="none" 
	d="
M0.999995,353.491058 
	C1.753267,353.593475 2.506544,354.186920 3.602379,354.941040 
	C6.146224,357.208069 8.347513,359.314423 10.274401,361.710388 
	C7.082648,362.000000 4.165297,362.000000 1.000000,362.000000 
	C1.000000,359.330017 1.000000,356.656067 0.999995,353.491058 
z"/>
<path fill="#FFFAFA" opacity="1.000000" stroke="none" 
	d="
M348.284729,73.144531 
	C342.845367,78.575195 337.658539,83.740372 332.497314,88.930977 
	C329.321075,92.125282 326.232819,92.222443 323.001648,88.954208 
	C315.983795,81.855873 308.817871,74.900993 301.925232,67.684242 
	C300.564331,66.259338 299.550201,63.958477 299.430298,61.997131 
	C299.095917,56.528065 299.222198,51.023052 299.346619,45.536312 
	C299.437195,41.541035 301.510468,39.384712 305.687805,39.632668 
	C305.853516,39.642506 306.020508,39.634789 306.186798,39.630661 
	C324.383667,39.179157 324.380219,39.182549 337.216675,52.106236 
	C340.851044,55.765335 344.431946,59.483063 348.184082,63.018150 
	C351.648010,66.281693 351.898163,69.470619 348.284729,73.144531 
M311.667450,47.011993 
	C309.840668,46.494125 307.998260,45.604912 306.196411,45.680546 
	C305.642670,45.703793 304.511871,48.598087 304.901825,49.753681 
	C305.282379,50.881485 307.925934,52.444054 308.425690,52.107529 
	C309.898407,51.115780 310.800964,49.277370 311.667450,47.011993 
z"/>
<path fill="#FFFAFB" opacity="1.000000" stroke="none" 
	d="
M69.104736,82.201668 
	C59.017906,83.080551 52.332687,79.026657 49.641602,70.703110 
	C47.297352,63.452324 50.315613,55.029972 56.998611,51.242130 
	C63.119755,47.772736 69.512390,47.759529 75.384872,51.756100 
	C81.066696,55.622913 83.749847,61.335213 82.591370,68.167259 
	C81.346634,75.508072 77.009750,80.429817 69.104736,82.201668 
z"/>
<path fill="#FF0322" opacity="1.000000" stroke="none" 
	d="
M208.359360,142.485748 
	C216.574890,148.600403 224.435669,154.557587 232.823334,160.914078 
	C215.946289,178.548248 200.116714,195.087952 183.435593,212.517410 
	C177.031265,205.480072 169.838074,199.498764 165.129364,191.964691 
	C157.489166,179.740128 158.592926,166.632935 166.835892,154.848495 
	C175.244400,142.827393 187.239380,138.334122 201.727310,140.737869 
	C203.849304,141.089920 205.913605,141.789505 208.359360,142.485748 
z"/>
<path fill="#FF0826" opacity="1.000000" stroke="none" 
	d="
M293.296143,228.703156 
	C286.671112,221.466461 280.298431,214.477310 273.088745,206.570190 
	C276.433624,203.465683 280.701813,199.300247 285.188141,195.384750 
	C293.356598,188.255646 302.266113,188.196960 310.449707,195.015945 
	C319.999969,202.973694 322.764069,213.281708 316.842438,222.234467 
	C313.132660,227.843277 308.149353,232.609741 303.310333,238.252121 
	C299.725098,234.835983 296.636780,231.893341 293.296143,228.703156 
M299.252441,201.953369 
	C293.791321,199.502548 290.522980,202.579529 288.574860,205.056976 
	C293.995514,211.152618 299.147827,216.946518 304.282806,222.720886 
	C310.482300,216.797470 310.662109,212.183655 304.976349,206.320953 
	C303.486084,204.784302 301.638916,203.593750 299.252441,201.953369 
z"/>
<path fill="#FF0928" opacity="1.000000" stroke="none" 
	d="
M241.086151,243.970581 
	C247.475769,255.727463 253.904617,267.463531 260.171448,279.285522 
	C260.614746,280.121735 260.240906,281.867065 259.611694,282.722137 
	C253.419098,291.137512 252.744186,291.200958 243.160141,286.692078 
	C236.752106,283.677338 230.239609,280.884644 223.069153,277.918762 
	C220.728928,276.744659 219.093414,275.644318 217.457916,274.544006 
	C217.009155,275.675934 216.560379,276.807831 215.920792,277.987915 
	C215.469437,278.084167 215.207947,278.090057 214.945511,278.053802 
	C214.506927,275.716705 214.068329,273.379578 213.629730,271.042480 
	C213.057968,271.004974 212.486191,270.967468 211.914413,270.929962 
	C214.733032,267.980896 217.551651,265.031860 220.570129,261.873688 
	C228.744675,266.459076 236.697372,270.919983 245.300751,275.745911 
	C244.643066,274.027985 244.296326,272.576691 243.578262,271.341217 
	C240.483124,266.015961 237.483704,260.615936 234.043549,255.516968 
	C231.708984,252.056625 231.400024,249.371002 235.019226,246.780182 
	C235.953552,246.111343 236.674744,245.144775 238.176544,244.164536 
	C239.601517,243.999573 240.343842,243.985077 241.086151,243.970581 
z"/>
<path fill="#FF0A28" opacity="1.000000" stroke="none" 
	d="
M241.181396,243.618683 
	C240.343842,243.985077 239.601517,243.999573 238.488159,244.025391 
	C241.715988,240.205109 245.314850,236.373535 249.296677,232.134232 
	C257.264923,236.555206 265.051086,240.875137 273.302612,245.577209 
	C274.097229,246.167511 274.426453,246.375687 274.755707,246.583847 
	C274.585052,245.979874 274.414429,245.375916 274.243774,244.771942 
	C269.604309,236.936447 264.964874,229.100967 260.300964,221.224228 
	C263.354309,218.470490 266.281860,215.830246 269.415222,213.004333 
	C269.480927,213.089569 270.264771,213.856491 270.753876,214.779587 
	C276.661591,225.928757 282.463654,237.134506 288.453064,248.239319 
	C289.670380,250.496338 289.587250,251.890381 287.766388,253.833542 
	C280.859375,261.204590 280.937347,261.295990 271.909821,256.898743 
	C263.554993,252.829178 255.243637,248.668671 246.845108,244.691910 
	C245.145172,243.886963 243.140717,243.725113 241.181396,243.618683 
z"/>
<path fill="#F50408" opacity="1.000000" stroke="none" 
	d="
M214.597015,278.214783 
	C215.207947,278.090057 215.469437,278.084167 216.268478,278.035431 
	C218.524780,279.382812 220.242584,280.730865 221.960403,282.078888 
	C222.930313,284.747467 224.586807,287.378082 224.736801,290.091949 
	C225.131165,297.227356 224.729767,304.402893 224.931320,311.554413 
	C225.026596,314.935059 224.112473,316.449310 220.466766,316.194305 
	C216.507675,315.917358 212.514221,316.131500 207.613464,316.131500 
	C207.613464,311.972595 207.613464,308.076965 207.613464,304.181335 
	C207.613464,300.852417 207.950806,297.481476 207.542725,294.203369 
	C206.711395,287.525513 208.430664,282.136108 214.597015,278.214783 
z"/>
<path fill="#FED2D8" opacity="1.000000" stroke="none" 
	d="
M222.007065,281.742889 
	C220.242584,280.730865 218.524780,279.382812 216.459290,277.987244 
	C216.560379,276.807831 217.009155,275.675934 217.457916,274.544006 
	C219.093414,275.644318 220.728928,276.744659 222.701996,278.024109 
	C222.710953,279.271118 222.382339,280.338989 222.007065,281.742889 
z"/>
<path fill="#FF1A36" opacity="1.000000" stroke="none" 
	d="
M311.797058,47.391167 
	C310.800964,49.277370 309.898407,51.115780 308.425690,52.107529 
	C307.925934,52.444054 305.282379,50.881485 304.901825,49.753681 
	C304.511871,48.598087 305.642670,45.703793 306.196411,45.680546 
	C307.998260,45.604912 309.840668,46.494125 311.797058,47.391167 
z"/>
<path fill="#FFF2F4" opacity="1.000000" stroke="none" 
	d="
M299.604065,202.098816 
	C301.638916,203.593750 303.486084,204.784302 304.976349,206.320953 
	C310.662109,212.183655 310.482300,216.797470 304.282806,222.720886 
	C299.147827,216.946518 293.995514,211.152618 288.574860,205.056976 
	C290.522980,202.579529 293.791321,199.502548 299.604065,202.098816 
z"/>
<path fill="#FFFDFD" opacity="1.000000" stroke="none" 
	d="
M274.051270,244.939178 
	C274.414429,245.375916 274.585052,245.979874 274.755707,246.583847 
	C274.426453,246.375687 274.097229,246.167511 273.619843,245.698944 
	C273.600708,245.327850 273.729736,245.217148 274.051270,244.939178 
z"/>
</svg>