<svg version="1.1" id="Layer_1" xmlns="http://www.w3.org/2000/svg"
	xmlns:xlink="http://www.w3.org/1999/xlink" x="0px" y="0px"
	width="100%" viewBox="0 0 1178 440" enable-background="new 0 0 1178 440" xml:space="preserve">
<path fill="#FFFFFF" opacity="1.000000" stroke="none" 
	d="
M764.000000,441.000000 
	C509.333374,441.000000 255.166763,441.000000 1.000102,441.000000 
	C1.000068,294.333405 1.000068,147.666809 1.000034,1.000161 
	C393.666534,1.000108 786.333069,1.000108 1178.999756,1.000054 
	C1178.999756,147.666489 1178.999756,294.332977 1178.999878,440.999756 
	C1040.833374,441.000000 902.666687,441.000000 764.000000,441.000000 
M427.212494,326.719116 
	C426.508545,326.586823 425.804626,326.454498 425.784332,325.617615 
	C425.912628,324.223053 426.040924,322.828461 426.296997,320.044769 
	C409.712891,321.036743 393.868347,321.984467 377.519257,322.671234 
	C376.448700,323.118927 375.378143,323.566650 374.219269,324.816986 
	C378.227814,325.188721 382.241119,325.516724 386.242493,325.953979 
	C387.814178,326.125763 389.359192,326.541901 390.916382,326.846802 
	C390.897552,327.361481 390.878693,327.876160 390.859863,328.390839 
	C383.751648,330.288239 375.893616,327.680603 368.936798,330.958710 
	C372.603546,332.081909 376.181519,331.843353 379.711487,332.152649 
	C382.897614,332.431824 386.669037,330.681824 389.786926,334.126373 
	C384.449432,336.747528 378.388550,332.830841 374.210663,337.669708 
	C377.734436,338.421356 381.195618,338.170868 384.585541,338.552917 
	C385.824768,338.692596 386.894714,340.334198 387.132111,341.567749 
	C381.257385,341.622833 375.380096,341.599091 369.509766,341.789490 
	C368.076233,341.835999 366.665497,342.584595 365.115417,343.840759 
	C370.415375,344.434845 375.715332,345.028900 381.436401,345.670197 
	C381.234070,349.648529 384.159515,349.074371 386.975403,349.318787 
	C387.611877,353.822662 390.058563,353.669250 393.840149,351.387482 
	C394.897552,350.481171 395.954956,349.574829 397.932983,348.842773 
	C407.294281,348.533264 416.655609,348.223785 426.355408,348.606049 
	C427.361206,350.042328 428.420044,352.692810 429.361298,352.651642 
	C431.100861,352.575653 432.836212,351.014374 434.441040,349.884003 
	C435.144989,349.388153 435.523987,348.431030 436.738068,348.060364 
	C437.857819,346.917084 439.449280,345.969604 440.018768,344.597870 
	C443.133392,337.095337 438.395752,332.133545 433.182007,326.810577 
	C431.429993,326.841278 429.677948,326.872009 427.212494,326.719116 
M218.358627,282.324921 
	C217.225616,283.889282 215.177948,285.416840 215.113266,287.024170 
	C214.781357,295.273193 214.959579,303.542755 214.959579,312.031677 
	C219.914948,312.031677 224.305237,312.031677 229.263885,312.031677 
	C229.263885,303.503967 229.321426,295.241852 229.185898,286.982910 
	C229.170212,286.026855 228.082352,285.088409 227.186172,283.293732 
	C227.551819,282.249390 227.917450,281.205048 228.925552,280.329803 
	C237.086868,284.227966 245.248184,288.126160 253.624573,292.127045 
	C254.818176,290.793732 255.643417,289.442719 256.833557,288.618774 
	C261.331329,285.504883 260.799866,282.273102 258.299835,277.886597 
	C253.486710,269.441528 249.353226,260.609100 245.565704,251.389832 
	C255.295822,256.080078 264.988831,260.851135 274.802734,265.359039 
	C276.038574,265.926758 278.521484,265.698364 279.367523,264.819366 
	C281.512360,262.591064 285.168182,258.813110 284.502045,257.362213 
	C279.538086,246.550385 273.669952,236.153656 267.668518,224.840881 
	C266.205109,226.628311 265.442230,228.035187 264.276276,228.896301 
	C260.590149,231.618713 260.523834,234.298416 263.157104,238.011047 
	C266.218903,242.327850 268.600861,247.126862 270.863068,252.301331 
	C270.756165,252.515045 270.649231,252.728760 269.821075,252.797775 
	C263.658539,249.376480 257.496033,245.955185 250.905029,242.296036 
	C248.432449,245.446625 246.236694,248.244507 243.347870,250.996857 
	C240.638199,253.149475 237.928528,255.302094 235.491684,257.237976 
	C240.096497,264.987091 243.821442,271.255524 247.039413,277.977478 
	C246.880264,278.138947 246.721115,278.300446 245.919022,278.207214 
	C239.597916,274.718903 233.276810,271.230621 227.371475,267.971771 
	C224.935532,270.238281 222.866821,271.932770 221.140305,273.923981 
	C220.681900,274.452637 221.274857,275.892853 221.136261,277.605316 
	C220.422058,279.065674 219.707855,280.526031 218.358627,282.324921 
M952.898560,281.820038 
	C952.341553,282.802673 951.972412,283.978577 951.194763,284.734222 
	C947.948792,287.888428 946.461853,291.527771 948.254395,295.861084 
	C950.122864,300.377991 953.930054,301.975372 958.420166,302.618073 
	C958.411194,304.312500 958.402161,306.006897 958.393188,307.701324 
	C959.948425,307.587799 961.514160,307.548462 963.054565,307.330292 
	C963.855103,307.216888 964.610962,306.787720 965.968079,307.035248 
	C966.228516,307.454987 966.626953,307.843689 966.729309,308.298981 
	C970.028015,322.978180 973.600952,324.516174 986.452148,317.216461 
	C987.592590,318.483856 988.733093,319.751221 989.873596,321.018616 
	C991.066406,319.420135 992.259277,317.821686 994.107666,316.204681 
	C994.416565,316.294708 994.777771,316.310303 995.026917,316.485413 
	C1006.727478,324.708618 1012.313354,322.304047 1014.093811,308.267700 
	C1014.114441,308.105164 1014.166077,307.946533 1014.973511,307.827728 
	C1015.755615,307.997498 1016.532104,308.272461 1017.321045,308.314423 
	C1018.819031,308.394012 1020.324158,308.340271 1021.826294,308.341888 
	C1021.806152,306.838318 1021.821838,305.333038 1021.748962,303.832031 
	C1021.718140,303.197327 1021.500671,302.571686 1022.234802,301.837585 
	C1026.716919,301.962341 1030.447754,300.571136 1032.350830,296.222076 
	C1034.219604,291.951263 1033.165649,288.219818 1029.817627,284.997192 
	C1029.040894,284.249420 1028.687012,283.062195 1028.763916,281.800873 
	C1030.038696,281.103943 1031.408936,280.534607 1032.560547,279.673035 
	C1033.639771,278.865753 1035.259277,277.722137 1035.226318,276.775879 
	C1035.191284,275.772369 1033.573486,274.717194 1032.488037,273.893890 
	C1031.741211,273.327423 1030.723877,273.117737 1030.039673,272.066406 
	C1034.905396,265.280334 1033.868286,258.470490 1027.455566,256.059845 
	C1025.488770,255.320526 1023.273682,255.242203 1021.267639,254.122971 
	C1021.286316,253.958313 1021.286560,253.789093 1021.326111,253.629639 
	C1023.820496,243.581360 1023.820801,243.581436 1013.265137,245.584229 
	C1013.549194,241.541016 1012.139832,238.357880 1008.305481,236.703888 
	C1004.476624,235.052322 1000.833557,235.333176 997.077087,238.257248 
	C995.955994,236.702530 994.707092,235.222748 993.741516,233.576813 
	C991.982300,230.578110 990.336792,230.091125 988.436584,233.421661 
	C987.295410,235.421829 986.053345,237.364441 984.155823,239.105087 
	C976.060303,233.033615 969.403442,235.307495 966.215210,244.950928 
	C965.428040,244.708191 964.655090,244.341141 963.850708,244.249435 
	C962.327332,244.075745 960.785889,244.060104 959.251953,243.978821 
	C959.236938,245.514420 959.101257,247.060699 959.235840,248.583069 
	C959.423340,250.703491 959.812927,252.806061 959.297424,255.112015 
	C948.083130,255.911392 944.775818,262.076355 949.591431,272.142120 
	C948.202820,273.198120 946.814270,274.254120 945.425720,275.310120 
	C946.636841,276.495636 947.761169,277.791504 949.085327,278.833374 
	C950.244873,279.745789 951.628784,280.372894 952.898560,281.820038 
M101.500000,48.999428 
	C94.667618,49.006260 87.832237,48.884609 81.003403,49.043728 
	C59.524944,49.544205 42.999454,66.471512 42.998112,87.877579 
	C42.993412,162.703735 42.994488,237.529892 42.997063,312.356049 
	C42.997849,335.171204 59.488232,351.633423 82.361732,351.638214 
	C123.524452,351.646912 164.687164,351.643005 205.849884,351.631805 
	C207.432648,351.631378 209.015381,351.499969 211.477020,351.390503 
	C209.179062,348.779877 207.466278,346.803101 205.720612,344.855743 
	C191.706284,329.222137 177.603455,313.666840 163.693466,297.941010 
	C152.795303,285.620117 153.092682,269.315247 164.197220,257.238281 
	C167.548630,253.593384 171.007599,250.047394 174.383987,246.491180 
	C170.416000,242.428574 166.743042,238.596054 162.991943,234.841614 
	C153.333832,225.174850 147.734634,213.457397 146.200516,199.995682 
	C143.479279,176.117340 155.541641,153.104080 176.257660,141.822266 
	C197.551895,130.225540 222.716843,132.556854 241.686935,148.073257 
	C246.655518,152.137268 251.259171,156.647446 255.417465,160.399628 
	C258.943298,157.235062 262.337921,154.510223 265.359375,151.420471 
	C278.347931,138.138336 294.220947,137.139404 308.618835,148.890976 
	C318.685455,157.107315 328.699646,165.387833 338.752930,173.620560 
	C346.659271,180.095108 354.589508,186.540451 362.963135,193.368988 
	C363.090973,191.885025 363.193481,191.250473 363.193420,190.615906 
	C363.190765,155.952713 363.196259,121.289482 363.135895,86.626373 
	C363.131317,83.984650 362.965485,81.268181 362.346222,78.714600 
	C357.983673,60.725304 342.494049,49.021835 322.978851,49.012955 
	C249.485916,48.979511 175.992950,48.999466 101.500000,48.999428 
M713.435181,217.006348 
	C706.917786,214.647507 700.513794,210.715942 693.860962,210.236465 
	C676.643616,208.995575 659.316528,209.274200 642.032715,208.976898 
	C641.797974,208.972855 641.556274,209.370529 641.410278,209.499222 
	C641.410278,245.965210 641.410278,282.341217 641.410278,318.826141 
	C655.684631,318.826141 669.693115,319.544617 683.599548,318.659424 
	C704.995850,317.297485 722.139587,308.395660 730.392517,287.248260 
	C735.597107,273.911774 736.095642,260.038635 733.171326,246.028229 
	C730.639587,233.898544 724.494995,224.220551 713.435181,217.006348 
M1112.152344,314.712158 
	C1113.865723,312.903656 1115.768311,311.238281 1117.262695,309.264069 
	C1129.308105,293.351440 1129.392212,258.987427 1117.500610,242.891037 
	C1107.147461,228.877090 1086.839478,228.137222 1075.456787,241.353821 
	C1074.558105,242.397293 1073.614868,243.402435 1072.133423,245.045166 
	C1070.808228,241.571625 1069.969116,238.894592 1068.754272,236.400497 
	C1068.193115,235.248428 1066.924438,233.656525 1065.932251,233.624283 
	C1058.664429,233.388046 1051.385376,233.496872 1044.095215,233.496872 
	C1044.095215,274.663422 1044.095215,315.219482 1044.095215,355.840942 
	C1053.842163,355.840942 1063.264404,355.840942 1072.593994,355.840942 
	C1072.593994,340.769684 1072.593994,325.932861 1072.593994,311.176605 
	C1076.505981,313.685486 1080.206055,317.019409 1084.543335,318.566345 
	C1088.775146,320.075684 1093.776489,320.617950 1098.222778,320.006226 
	C1102.805542,319.375702 1107.126465,316.840729 1112.152344,314.712158 
M849.105591,241.499985 
	C849.105591,267.243530 849.105591,292.987061 849.105591,318.685852 
	C859.313904,318.685852 868.881836,318.685852 878.786865,318.685852 
	C878.786865,317.066498 878.781738,315.763458 878.787659,314.460480 
	C878.848328,301.138580 878.643799,287.807098 879.120728,274.500061 
	C879.282715,269.979706 880.594116,265.272644 882.411255,261.099854 
	C884.470764,256.370422 889.051758,254.646118 894.089905,255.262634 
	C898.894592,255.850586 901.170593,259.356415 901.996826,263.751312 
	C902.577026,266.837769 902.926086,270.012695 902.948730,273.151215 
	C903.048340,286.973053 902.984558,300.795959 903.003479,314.618469 
	C903.005432,316.041595 903.163879,317.464508 903.236755,318.671997 
	C913.283813,318.671997 922.860168,318.671997 932.410889,318.671997 
	C932.410889,298.554138 933.334473,278.714020 932.152588,259.000092 
	C930.957458,239.065704 915.428528,228.750870 895.660400,232.573746 
	C888.241882,234.008392 882.846436,238.146957 878.253540,244.576981 
	C878.253540,229.783844 878.253540,215.936096 878.253540,201.862518 
	C868.667480,201.862518 859.078186,201.862518 849.105591,201.862518 
	C849.105591,214.915253 849.105591,227.707611 849.105591,241.499985 
M428.487793,208.753830 
	C421.747772,208.753830 415.007782,208.753830 407.767517,208.753830 
	C411.314423,219.585693 414.630371,229.665863 417.916138,239.755905 
	C426.044037,264.715393 434.118011,289.692657 442.366821,314.612122 
	C442.922699,316.291382 444.718536,318.769592 446.001068,318.808960 
	C456.931335,319.144318 467.876282,319.000916 478.837494,319.000916 
	C490.907257,282.146576 502.832672,245.733063 514.943359,208.753830 
	C505.007965,208.753830 495.850647,209.028488 486.722504,208.631882 
	C482.492859,208.448090 481.071411,209.936966 480.070770,213.818237 
	C473.827637,238.034363 467.319092,262.182037 461.336578,284.703156 
	C455.937012,264.275421 450.100372,242.128677 444.224670,219.992279 
	C441.239441,208.745529 441.207672,208.753967 428.487793,208.753830 
M567.513245,319.002747 
	C574.826233,319.002747 582.139282,319.002747 589.582153,319.002747 
	C601.606873,282.297241 613.539551,245.872894 625.603394,209.048080 
	C614.088928,209.048080 603.186340,209.048080 592.034851,209.048080 
	C585.259888,234.865875 578.541321,260.468933 571.903442,285.764160 
	C571.893738,285.743103 571.531921,285.193542 571.378174,284.590912 
	C565.257141,260.599670 559.187256,236.595261 552.969910,212.629105 
	C552.595642,211.186386 551.093628,208.957260 550.067078,208.929688 
	C539.773132,208.653305 529.468750,208.761642 518.533447,208.761642 
	C530.613464,245.796143 542.499512,282.236053 554.492188,319.002747 
	C558.567322,319.002747 562.543518,319.002747 567.513245,319.002747 
M766.843384,214.246552 
	C749.276306,224.714249 748.994873,255.262756 768.027588,266.751343 
	C772.429382,269.408356 777.062561,271.690918 781.644531,274.037994 
	C786.227173,276.385529 790.946899,278.471985 795.478638,280.910614 
	C798.952393,282.779968 801.175598,285.595612 800.117676,289.891357 
	C799.125977,293.918182 795.875916,295.534698 792.315369,295.805023 
	C787.866699,296.142822 783.197632,296.370300 778.906128,295.398376 
	C770.228638,293.433167 761.741699,290.627014 753.018860,288.122437 
	C753.018860,295.043335 753.201172,302.357300 752.935852,309.655029 
	C752.817200,312.918060 754.140930,314.201721 756.971863,315.348907 
	C770.671997,320.900604 784.860596,321.813202 799.156189,319.243622 
	C804.897461,318.211700 810.694580,315.833008 815.730835,312.832794 
	C834.198792,301.830994 836.262634,270.862457 815.952820,259.153198 
	C811.638794,256.665985 807.164062,254.454987 802.739319,252.163025 
	C797.723022,249.564590 792.412781,247.412659 787.769531,244.269958 
	C785.691406,242.863388 783.436707,239.126099 783.952698,237.148453 
	C784.567993,234.790161 787.803467,232.189285 790.385986,231.500275 
	C793.762512,230.599380 797.735352,230.913300 801.230347,231.694504 
	C807.955994,233.197815 814.526184,235.396606 821.439026,237.387054 
	C824.327332,230.081192 827.234314,222.728134 830.336975,214.880081 
	C825.924133,213.304184 821.968506,211.582642 817.848022,210.473907 
	C800.696716,205.858932 783.721680,204.723022 766.843384,214.246552 
M234.468201,183.745621 
	C234.210342,182.665894 234.304993,181.233032 233.635971,180.565186 
	C229.983673,176.919357 226.319641,173.246445 222.331909,169.983383 
	C213.665268,162.891754 200.442154,162.147430 190.381409,167.886566 
	C179.713058,173.972336 174.263885,185.141724 175.567673,196.692688 
	C177.028595,209.635681 186.438339,216.656891 195.138794,224.906906 
	C208.233429,211.193359 221.092148,197.726868 234.468201,183.745621 
M857.440857,355.781860 
	C698.994019,355.252960 540.547180,354.723999 382.100311,354.195526 
	C380.600830,354.190521 379.078522,354.036072 377.610931,354.251434 
	C376.810699,354.368866 376.103210,355.118164 375.353912,355.582458 
	C375.492279,355.983795 375.630646,356.385101 375.769043,356.786438 
	C586.622131,357.460724 797.475220,358.136108 1008.328430,358.772430 
	C1009.192871,358.775055 1010.063477,358.229401 1010.917908,357.904785 
	C1011.012329,357.868927 1011.052490,357.602875 1011.056946,357.441986 
	C1011.061340,357.281128 1010.989319,357.118164 1010.672363,355.784760 
	C960.111267,355.784760 909.265198,355.784760 857.440857,355.781860 
M305.039185,213.483994 
	C295.815613,204.750671 288.131836,204.903122 279.013885,213.722931 
	C276.157806,216.485596 272.835876,218.766678 271.265778,220.030136 
	C280.236053,230.029572 288.107117,238.803680 295.611267,247.168793 
	C299.017212,244.074066 302.031708,241.674423 304.644775,238.897079 
	C312.481934,230.567184 312.679260,223.073517 305.039185,213.483994 
z"/>
<path fill="#FF0120" opacity="1.000000" stroke="none" 
	d="
M102.000000,48.999428 
	C175.992950,48.999466 249.485916,48.979511 322.978851,49.012955 
	C342.494049,49.021835 357.983673,60.725304 362.346222,78.714600 
	C362.965485,81.268181 363.131317,83.984650 363.135895,86.626373 
	C363.196259,121.289482 363.190765,155.952713 363.193420,190.615906 
	C363.193481,191.250473 363.090973,191.885025 362.963135,193.368988 
	C354.589508,186.540451 346.659271,180.095108 338.752930,173.620560 
	C328.699646,165.387833 318.685455,157.107315 308.618835,148.890976 
	C294.220947,137.139404 278.347931,138.138336 265.359375,151.420471 
	C262.337921,154.510223 258.943298,157.235062 255.417465,160.399628 
	C251.259171,156.647446 246.655518,152.137268 241.686935,148.073257 
	C222.716843,132.556854 197.551895,130.225540 176.257660,141.822266 
	C155.541641,153.104080 143.479279,176.117340 146.200516,199.995682 
	C147.734634,213.457397 153.333832,225.174850 162.991943,234.841614 
	C166.743042,238.596054 170.416000,242.428574 174.383987,246.491180 
	C171.007599,250.047394 167.548630,253.593384 164.197220,257.238281 
	C153.092682,269.315247 152.795303,285.620117 163.693466,297.941010 
	C177.603455,313.666840 191.706284,329.222137 205.720612,344.855743 
	C207.466278,346.803101 209.179062,348.779877 211.477020,351.390503 
	C209.015381,351.499969 207.432648,351.631378 205.849884,351.631805 
	C164.687164,351.643005 123.524452,351.646912 82.361732,351.638214 
	C59.488232,351.633423 42.997849,335.171204 42.997063,312.356049 
	C42.994488,237.529892 42.993412,162.703735 42.998112,87.877579 
	C42.999454,66.471512 59.524944,49.544205 81.003403,49.043728 
	C87.832237,48.884609 94.667618,49.006260 102.000000,48.999428 
M307.308990,79.156578 
	C304.481262,79.156860 301.647705,79.273254 298.827148,79.131142 
	C294.200012,78.898010 292.018890,80.959290 292.121063,85.609192 
	C292.208710,89.599297 291.969971,93.603165 292.214417,97.580116 
	C292.317902,99.264099 292.839722,101.320259 293.938934,102.479271 
	C300.117767,108.994133 306.533478,115.284149 312.861877,121.657356 
	C315.329956,124.142914 317.763977,124.104584 320.221924,121.638306 
	C324.801086,117.043610 329.359802,112.427650 333.992676,107.887550 
	C336.957367,104.982254 336.993805,102.296669 333.987244,99.351898 
	C328.521912,93.998878 323.041229,88.648697 317.841644,83.042542 
	C315.125336,80.113838 312.203857,78.558334 307.308990,79.156578 
M81.860115,98.312592 
	C80.768219,104.892319 82.772903,110.217827 88.646980,113.572609 
	C93.283112,116.220375 98.237617,116.195114 102.844215,113.444191 
	C108.632805,109.987411 110.983078,103.892029 109.307953,97.639664 
	C107.680084,91.563698 102.553825,87.352394 96.419495,87.051590 
	C89.606369,86.717499 84.551003,90.386414 81.860115,98.312592 
z"/>
<path fill="#FF0221" opacity="1.000000" stroke="none" 
	d="
M713.739868,217.203354 
	C724.494995,224.220551 730.639587,233.898544 733.171326,246.028229 
	C736.095642,260.038635 735.597107,273.911774 730.392517,287.248260 
	C722.139587,308.395660 704.995850,317.297485 683.599548,318.659424 
	C669.693115,319.544617 655.684631,318.826141 641.410278,318.826141 
	C641.410278,282.341217 641.410278,245.965210 641.410278,209.499222 
	C641.556274,209.370529 641.797974,208.972855 642.032715,208.976898 
	C659.316528,209.274200 676.643616,208.995575 693.860962,210.236465 
	C700.513794,210.715942 706.917786,214.647507 713.739868,217.203354 
M693.046143,290.685791 
	C695.920410,286.729492 699.876831,283.158386 701.449951,278.738922 
	C705.032532,268.674194 704.914978,258.131927 701.878662,247.825546 
	C699.450806,239.584625 693.809875,234.443054 685.279297,233.272537 
	C680.755493,232.651810 676.076416,233.162628 671.315430,233.162628 
	C671.315430,253.581375 671.315430,273.915619 671.315430,294.471527 
	C678.785339,294.687622 685.892334,294.835144 693.046143,290.685791 
z"/>
<path fill="#FF0220" opacity="1.000000" stroke="none" 
	d="
M1111.857178,314.925598 
	C1107.126465,316.840729 1102.805542,319.375702 1098.222778,320.006226 
	C1093.776489,320.617950 1088.775146,320.075684 1084.543335,318.566345 
	C1080.206055,317.019409 1076.505981,313.685486 1072.593994,311.176605 
	C1072.593994,325.932861 1072.593994,340.769684 1072.593994,355.840942 
	C1063.264404,355.840942 1053.842163,355.840942 1044.095215,355.840942 
	C1044.095215,315.219482 1044.095215,274.663422 1044.095215,233.496872 
	C1051.385376,233.496872 1058.664429,233.388046 1065.932251,233.624283 
	C1066.924438,233.656525 1068.193115,235.248428 1068.754272,236.400497 
	C1069.969116,238.894592 1070.808228,241.571625 1072.133423,245.045166 
	C1073.614868,243.402435 1074.558105,242.397293 1075.456787,241.353821 
	C1086.839478,228.137222 1107.147461,228.877090 1117.500610,242.891037 
	C1129.392212,258.987427 1129.308105,293.351440 1117.262695,309.264069 
	C1115.768311,311.238281 1113.865723,312.903656 1111.857178,314.925598 
M1073.311890,270.002563 
	C1073.911865,276.583374 1074.009277,283.263184 1075.279907,289.711823 
	C1076.200928,294.386261 1080.266113,296.633484 1085.047485,296.757263 
	C1089.270996,296.866638 1092.675659,295.023987 1093.984619,290.913940 
	C1097.142334,280.998901 1097.196899,270.945374 1094.029419,261.017456 
	C1092.711304,256.886292 1089.286011,255.142181 1085.092041,255.140015 
	C1081.011841,255.137924 1077.406128,256.453613 1075.778320,260.523468 
	C1074.682129,263.263977 1074.198853,266.249664 1073.311890,270.002563 
z"/>
<path fill="#FF0322" opacity="1.000000" stroke="none" 
	d="
M849.105591,240.999969 
	C849.105591,227.707611 849.105591,214.915253 849.105591,201.862518 
	C859.078186,201.862518 868.667480,201.862518 878.253540,201.862518 
	C878.253540,215.936096 878.253540,229.783844 878.253540,244.576981 
	C882.846436,238.146957 888.241882,234.008392 895.660400,232.573746 
	C915.428528,228.750870 930.957458,239.065704 932.152588,259.000092 
	C933.334473,278.714020 932.410889,298.554138 932.410889,318.671997 
	C922.860168,318.671997 913.283813,318.671997 903.236755,318.671997 
	C903.163879,317.464508 903.005432,316.041595 903.003479,314.618469 
	C902.984558,300.795959 903.048340,286.973053 902.948730,273.151215 
	C902.926086,270.012695 902.577026,266.837769 901.996826,263.751312 
	C901.170593,259.356415 898.894592,255.850586 894.089905,255.262634 
	C889.051758,254.646118 884.470764,256.370422 882.411255,261.099854 
	C880.594116,265.272644 879.282715,269.979706 879.120728,274.500061 
	C878.643799,287.807098 878.848328,301.138580 878.787659,314.460480 
	C878.781738,315.763458 878.786865,317.066498 878.786865,318.685852 
	C868.881836,318.685852 859.313904,318.685852 849.105591,318.685852 
	C849.105591,292.987061 849.105591,267.243530 849.105591,240.999969 
z"/>
<path fill="#FF0221" opacity="1.000000" stroke="none" 
	d="
M428.984863,208.753799 
	C441.207672,208.753967 441.239441,208.745529 444.224670,219.992279 
	C450.100372,242.128677 455.937012,264.275421 461.336578,284.703156 
	C467.319092,262.182037 473.827637,238.034363 480.070770,213.818237 
	C481.071411,209.936966 482.492859,208.448090 486.722504,208.631882 
	C495.850647,209.028488 505.007965,208.753830 514.943359,208.753830 
	C502.832672,245.733063 490.907257,282.146576 478.837494,319.000916 
	C467.876282,319.000916 456.931335,319.144318 446.001068,318.808960 
	C444.718536,318.769592 442.922699,316.291382 442.366821,314.612122 
	C434.118011,289.692657 426.044037,264.715393 417.916138,239.755905 
	C414.630371,229.665863 411.314423,219.585693 407.767517,208.753830 
	C415.007782,208.753830 421.747772,208.753830 428.984863,208.753799 
z"/>
<path fill="#FF0221" opacity="1.000000" stroke="none" 
	d="
M567.016479,319.002747 
	C562.543518,319.002747 558.567322,319.002747 554.492188,319.002747 
	C542.499512,282.236053 530.613464,245.796143 518.533447,208.761642 
	C529.468750,208.761642 539.773132,208.653305 550.067078,208.929688 
	C551.093628,208.957260 552.595642,211.186386 552.969910,212.629105 
	C559.187256,236.595261 565.257141,260.599670 571.378174,284.590912 
	C571.531921,285.193542 571.893738,285.743103 571.903442,285.764160 
	C578.541321,260.468933 585.259888,234.865875 592.034851,209.048080 
	C603.186340,209.048080 614.088928,209.048080 625.603394,209.048080 
	C613.539551,245.872894 601.606873,282.297241 589.582153,319.002747 
	C582.139282,319.002747 574.826233,319.002747 567.016479,319.002747 
z"/>
<path fill="#FF0221" opacity="1.000000" stroke="none" 
	d="
M767.159180,214.062683 
	C783.721680,204.723022 800.696716,205.858932 817.848022,210.473907 
	C821.968506,211.582642 825.924133,213.304184 830.336975,214.880081 
	C827.234314,222.728134 824.327332,230.081192 821.439026,237.387054 
	C814.526184,235.396606 807.955994,233.197815 801.230347,231.694504 
	C797.735352,230.913300 793.762512,230.599380 790.385986,231.500275 
	C787.803467,232.189285 784.567993,234.790161 783.952698,237.148453 
	C783.436707,239.126099 785.691406,242.863388 787.769531,244.269958 
	C792.412781,247.412659 797.723022,249.564590 802.739319,252.163025 
	C807.164062,254.454987 811.638794,256.665985 815.952820,259.153198 
	C836.262634,270.862457 834.198792,301.830994 815.730835,312.832794 
	C810.694580,315.833008 804.897461,318.211700 799.156189,319.243622 
	C784.860596,321.813202 770.671997,320.900604 756.971863,315.348907 
	C754.140930,314.201721 752.817200,312.918060 752.935852,309.655029 
	C753.201172,302.357300 753.018860,295.043335 753.018860,288.122437 
	C761.741699,290.627014 770.228638,293.433167 778.906128,295.398376 
	C783.197632,296.370300 787.866699,296.142822 792.315369,295.805023 
	C795.875916,295.534698 799.125977,293.918182 800.117676,289.891357 
	C801.175598,285.595612 798.952393,282.779968 795.478638,280.910614 
	C790.946899,278.471985 786.227173,276.385529 781.644531,274.037994 
	C777.062561,271.690918 772.429382,269.408356 768.027588,266.751343 
	C748.994873,255.262756 749.276306,224.714249 767.159180,214.062683 
z"/>
<path fill="#F33C2E" opacity="1.000000" stroke="none" 
	d="
M997.744751,238.483063 
	C1000.833557,235.333176 1004.476624,235.052322 1008.305481,236.703888 
	C1012.139832,238.357880 1013.549194,241.541016 1013.573608,246.237640 
	C1014.360291,251.333099 1016.445435,254.305359 1021.172302,254.861206 
	C1023.273682,255.242203 1025.488770,255.320526 1027.455566,256.059845 
	C1033.868286,258.470490 1034.905396,265.280334 1029.593262,272.541565 
	C1026.567749,275.787292 1026.143555,278.797638 1028.138428,282.077209 
	C1028.687012,283.062195 1029.040894,284.249420 1029.817627,284.997192 
	C1033.165649,288.219818 1034.219604,291.951263 1032.350830,296.222076 
	C1030.447754,300.571136 1026.716919,301.962341 1021.487061,301.908325 
	C1018.560608,303.914764 1016.381897,305.850433 1014.203247,307.786102 
	C1014.166077,307.946533 1014.114441,308.105164 1014.093811,308.267700 
	C1012.313354,322.304047 1006.727478,324.708618 995.026917,316.485413 
	C994.777771,316.310303 994.416565,316.294708 993.495483,315.945526 
	C990.603271,315.985809 988.323303,316.285217 986.043335,316.584656 
	C973.600952,324.516174 970.028015,322.978180 966.729309,308.298981 
	C966.626953,307.843689 966.228516,307.454987 965.585449,306.437622 
	C963.001770,304.526794 960.800720,303.213593 958.599609,301.900391 
	C953.930054,301.975372 950.122864,300.377991 948.254395,295.861084 
	C946.461853,291.527771 947.948792,287.888428 951.194763,284.734222 
	C951.972412,283.978577 952.341553,282.802673 953.169067,281.207458 
	C954.440552,276.953705 953.466797,274.026215 950.294739,271.893219 
	C944.775818,262.076355 948.083130,255.911392 960.048340,255.009079 
	C965.074463,252.977142 967.326050,249.793854 966.950439,244.982193 
	C969.403442,235.307495 976.060303,233.033615 984.715210,239.503021 
	C989.891907,243.479156 993.921814,241.891098 997.744751,238.483063 
M1011.375183,268.409912 
	C1011.982422,265.389404 1012.589661,262.368927 1013.263000,259.019348 
	C1007.002502,259.027283 1010.219360,265.526794 1007.887085,266.605804 
	C1005.987366,264.042084 1004.482910,261.480042 1002.375549,259.590302 
	C1001.922729,259.184235 998.124329,260.992554 997.909119,262.157867 
	C997.479065,264.486908 997.634216,268.032013 999.091003,269.295715 
	C1000.605042,270.609131 1003.941956,269.821136 1006.899536,269.973602 
	C1006.434570,272.222748 1005.753784,275.516113 1004.986755,279.226501 
	C1010.431091,278.833618 1009.025696,274.623260 1010.695190,272.167175 
	C1010.934204,272.950012 1011.172974,273.732910 1011.412231,274.515686 
	C1012.341431,277.555542 1014.091919,279.537933 1017.545166,278.604889 
	C1021.028381,277.663757 1021.382629,274.841858 1020.914978,271.886963 
	C1020.192932,267.323730 1016.868652,266.314972 1011.375183,268.409912 
M981.255859,262.534027 
	C980.406677,263.729492 979.201538,264.810242 978.772583,266.141144 
	C977.270020,270.802856 977.368347,275.781342 981.012695,279.073456 
	C983.020569,280.887268 987.116821,281.601501 989.929688,281.054260 
	C995.417419,279.986603 997.415466,273.308655 994.949036,266.630859 
	C992.926514,261.154694 988.474060,259.605255 981.255859,262.534027 
M970.197144,273.662018 
	C970.280212,275.395355 970.363342,277.128662 970.446472,278.861969 
	C968.845581,278.632019 967.233582,278.459930 965.647156,278.154663 
	C964.260498,277.887848 962.902588,277.471344 960.687622,276.905090 
	C962.261597,282.496307 965.349731,284.067505 969.609558,283.452820 
	C973.492432,282.892609 976.073608,280.639618 976.001709,276.466644 
	C975.975098,274.921173 975.467224,272.533264 974.435852,272.018707 
	C971.582825,270.595276 968.338257,269.956543 965.248474,269.007599 
	C966.741638,267.624359 968.729675,267.432465 970.566528,266.800964 
	C971.566589,266.457092 972.310059,265.366852 973.169189,264.613220 
	C972.182556,264.074127 971.180847,263.055237 970.212158,263.085754 
	C967.285095,263.177917 964.370911,263.677429 961.538208,264.008087 
	C961.538208,267.908295 961.538208,271.288879 961.538208,275.207703 
	C964.530518,274.468353 966.996765,273.858948 970.197144,273.662018 
M981.117493,300.711365 
	C985.438721,299.268341 987.796875,296.470459 986.972168,291.744263 
	C986.356995,288.218567 984.155884,286.251617 980.518250,286.030731 
	C976.273193,285.772980 972.876404,288.469452 972.455200,292.420715 
	C972.016541,296.535736 974.915161,299.611664 981.117493,300.711365 
M1004.572021,286.934937 
	C1005.597778,286.379608 1006.623535,285.824280 1007.649231,285.268982 
	C1007.493652,284.986206 1007.338013,284.703430 1007.182434,284.420654 
	C1004.633728,284.420654 1002.085022,284.420654 999.596985,284.420654 
	C998.418701,292.822052 999.825500,297.446716 1002.378906,296.425507 
	C1004.062622,294.414032 1005.746338,292.402588 1007.748413,290.010773 
	C1006.640564,289.863647 1005.465027,290.004547 1004.705444,289.508545 
	C1004.142090,289.140778 1004.119019,287.945587 1004.572021,286.934937 
M989.746948,297.433624 
	C990.790588,297.480560 992.480469,297.944122 992.765564,297.501953 
	C993.968872,295.635681 994.753662,293.499451 995.755920,291.322083 
	C995.054932,291.033264 993.514282,290.398468 991.028687,289.374298 
	C993.706726,288.158752 995.177063,287.491394 996.647461,286.824005 
	C996.540283,286.372162 996.433167,285.920349 996.326050,285.468506 
	C993.983521,285.750336 991.640991,286.032135 989.327942,286.310425 
	C989.327942,290.115845 989.327942,293.405121 989.746948,297.433624 
z"/>
<path fill="#FF0321" opacity="1.000000" stroke="none" 
	d="
M234.209534,184.003006 
	C221.092148,197.726868 208.233429,211.193359 195.138794,224.906906 
	C186.438339,216.656891 177.028595,209.635681 175.567673,196.692688 
	C174.263885,185.141724 179.713058,173.972336 190.381409,167.886566 
	C200.442154,162.147430 213.665268,162.891754 222.331909,169.983383 
	C226.319641,173.246445 229.983673,176.919357 233.635971,180.565186 
	C234.304993,181.233032 234.210342,182.665894 234.209534,184.003006 
z"/>
<path fill="#F51919" opacity="1.000000" stroke="none" 
	d="
M857.929932,355.783325 
	C909.265198,355.784760 960.111267,355.784760 1010.672363,355.784760 
	C1010.989319,357.118164 1011.061340,357.281128 1011.056946,357.441986 
	C1011.052490,357.602875 1011.012329,357.868927 1010.917908,357.904785 
	C1010.063477,358.229401 1009.192871,358.775055 1008.328430,358.772430 
	C797.475220,358.136108 586.622131,357.460724 375.769043,356.786438 
	C375.630646,356.385101 375.492279,355.983795 375.353912,355.582458 
	C376.103210,355.118164 376.810699,354.368866 377.610931,354.251434 
	C379.078522,354.036072 380.600830,354.190521 382.100311,354.195526 
	C540.547180,354.723999 698.994019,355.252960 857.929932,355.783325 
z"/>
<path fill="#F40809" opacity="1.000000" stroke="none" 
	d="
M426.016907,347.914307 
	C416.655609,348.223785 407.294281,348.533264 397.449646,348.500061 
	C396.665344,347.771729 396.364380,347.386139 395.885986,346.745789 
	C395.126617,346.323364 394.544647,346.155762 393.718018,345.993530 
	C393.473328,345.998901 392.984131,346.015198 392.992065,346.007599 
	C393.000000,346.000000 392.984741,346.014923 392.993927,345.775970 
	C393.003113,345.537018 393.016846,345.058960 393.032898,344.760437 
	C393.061859,343.868622 393.074768,343.275299 393.398621,342.570984 
	C394.147003,342.409363 394.584442,342.358765 395.240051,342.484070 
	C395.824707,342.662476 396.191162,342.664978 396.930237,342.593506 
	C399.066895,342.480865 400.830933,342.442200 403.010864,342.502625 
	C404.555603,342.703522 405.684540,342.805298 407.129822,342.932831 
	C407.657745,342.960480 407.869354,342.962372 408.483978,342.979553 
	C410.634888,342.668427 412.382782,342.342010 414.497375,342.008575 
	C415.899750,341.312256 416.935394,340.622986 417.984802,339.599854 
	C418.309906,338.221741 418.621216,337.177521 418.949036,335.832031 
	C418.960693,335.330475 418.955872,335.130127 418.973236,334.962219 
	C418.995453,334.994690 418.926208,334.957367 419.101440,334.917297 
	C419.367981,334.802094 419.546997,334.707123 419.535278,334.655365 
	C419.486969,334.442169 419.380768,334.242096 419.241516,333.768799 
	C419.122589,333.329742 419.058014,333.158997 418.899597,332.735046 
	C418.872589,331.642334 418.939453,330.802826 419.132385,329.787476 
	C419.437805,329.382568 419.646973,329.185059 420.139648,328.843262 
	C420.023224,328.195343 419.653076,327.723358 419.001892,327.244720 
	C419.156616,326.560577 419.592346,325.883057 420.184326,325.327759 
	C420.509552,325.162384 420.678528,324.874786 420.789551,324.216003 
	C419.148895,323.560852 417.566193,323.276855 415.693604,322.954498 
	C415.016174,322.903442 414.628601,322.890717 413.830902,322.808594 
	C411.943848,323.487061 410.466980,324.234863 408.762207,325.000122 
	C408.534332,325.017548 408.080292,324.965515 407.956573,324.592041 
	C405.875946,323.739227 403.919006,323.259888 401.815186,322.584229 
	C401.121948,322.537750 400.575623,322.687561 399.598145,322.784424 
	C395.452179,321.892700 394.912537,324.491425 394.293549,327.290405 
	C394.069702,327.704926 394.041321,327.965729 394.115204,328.613708 
	C393.770782,330.959991 393.405457,332.927948 393.054199,335.268921 
	C393.095154,335.889343 393.122009,336.136719 393.042480,336.727661 
	C392.619995,338.722839 392.303894,340.374451 391.866760,342.276276 
	C391.475037,343.011963 391.204346,343.497437 390.601379,343.990540 
	C389.512787,344.334930 388.756470,344.671722 387.746429,345.204987 
	C387.355652,346.436432 387.218597,347.471436 387.081543,348.506409 
	C384.159515,349.074371 381.234070,349.648529 381.436401,345.670197 
	C375.715332,345.028900 370.415375,344.434845 365.632507,343.423523 
	C371.811951,343.002960 377.478943,343.125366 383.133820,342.918243 
	C384.787506,342.857666 386.406830,341.859192 388.041901,341.290619 
	C386.894714,340.334198 385.824768,338.692596 384.585541,338.552917 
	C381.195618,338.170868 377.734436,338.421356 374.210663,337.669708 
	C378.388550,332.830841 384.449432,336.747528 389.786926,334.126373 
	C386.669037,330.681824 382.897614,332.431824 379.711487,332.152649 
	C376.181519,331.843353 372.603546,332.081909 368.936798,330.958710 
	C375.893616,327.680603 383.751648,330.288239 390.859863,328.390839 
	C390.878693,327.876160 390.897552,327.361481 390.916382,326.846802 
	C389.359192,326.541901 387.814178,326.125763 386.242493,325.953979 
	C382.241119,325.516724 378.227814,325.188721 374.609283,324.414917 
	C376.007477,323.652618 377.015656,323.292419 378.023804,322.932190 
	C393.868347,321.984467 409.712891,321.036743 426.296997,320.044769 
	C426.040924,322.828461 425.912628,324.223053 425.336365,326.186707 
	C424.995178,327.393005 425.101990,328.030243 425.137451,328.969604 
	C425.040649,329.474640 425.015137,329.677521 424.732330,330.091125 
	C424.417816,331.161682 424.360657,332.021484 424.077850,332.982391 
	C423.756378,333.214966 423.557312,333.437073 423.580811,333.463867 
	C423.785828,333.697449 424.030701,333.896057 424.252686,334.292236 
	C424.241638,334.479370 424.115082,334.832275 424.033997,335.186432 
	C423.296143,336.751740 422.639343,337.962860 421.982544,339.174011 
	C422.431580,339.435150 422.880585,339.696320 423.329620,339.957489 
	C423.913849,338.905518 424.498077,337.853546 425.522705,336.810944 
	C428.985626,336.624756 432.008148,336.429199 435.327637,336.032532 
	C435.042847,333.640289 434.461029,331.449127 433.913330,328.902100 
	C433.966095,328.069946 433.984802,327.593658 434.003479,327.117401 
	C438.395752,332.133545 443.133392,337.095337 440.018768,344.597870 
	C439.449280,345.969604 437.857819,346.917084 436.406555,347.518555 
	C435.514526,346.381653 433.409943,347.275177 432.365417,348.844818 
	C432.365417,346.779572 432.365417,345.125427 432.365417,342.533295 
	C429.858643,344.658051 427.937805,346.286163 426.016907,347.914307 
M395.483795,344.584656 
	C395.483795,344.584656 395.426727,344.483795 395.483795,344.584656 
z"/>
<path fill="#FF0725" opacity="1.000000" stroke="none" 
	d="
M305.292542,213.742554 
	C312.679260,223.073517 312.481934,230.567184 304.644775,238.897079 
	C302.031708,241.674423 299.017212,244.074066 295.611267,247.168793 
	C288.107117,238.803680 280.236053,230.029572 271.265778,220.030136 
	C272.835876,218.766678 276.157806,216.485596 279.013885,213.722931 
	C288.131836,204.903122 295.815613,204.750671 305.292542,213.742554 
M295.115143,232.721924 
	C295.952209,233.373672 296.789307,234.025421 299.085052,235.812866 
	C299.888306,231.469864 301.557800,228.031006 300.806732,225.244614 
	C299.560913,220.622849 295.807129,216.976547 290.843567,216.642212 
	C288.323914,216.472504 285.629822,218.892151 283.312775,219.998795 
	C287.596069,224.613281 291.101288,228.389557 295.115143,232.721924 
z"/>
<path fill="#FF0826" opacity="1.000000" stroke="none" 
	d="
M271.277863,251.716599 
	C268.600861,247.126862 266.218903,242.327850 263.157104,238.011047 
	C260.523834,234.298416 260.590149,231.618713 264.276276,228.896301 
	C265.442230,228.035187 266.205109,226.628311 267.668518,224.840881 
	C273.669952,236.153656 279.538086,246.550385 284.502045,257.362213 
	C285.168182,258.813110 281.512360,262.591064 279.367523,264.819366 
	C278.521484,265.698364 276.038574,265.926758 274.802734,265.359039 
	C264.988831,260.851135 255.295822,256.080078 245.279114,251.694260 
	C244.992508,251.998688 245.037170,252.067642 245.159027,251.731461 
	C244.836365,251.249603 244.391846,251.103943 243.971832,250.978058 
	C243.996353,250.997818 244.040924,251.042358 244.040924,251.042358 
	C246.236694,248.244507 248.432449,245.446625 250.905029,242.296036 
	C257.496033,245.955185 263.658539,249.376480 270.298920,253.036514 
	C270.944916,253.517792 271.176331,253.647095 271.699310,253.814087 
	C272.168518,253.924164 272.409515,253.883347 272.650482,253.842529 
	C272.451508,253.545593 272.252502,253.248642 272.033173,252.687317 
	C271.767822,252.187500 271.522858,251.952057 271.277863,251.716599 
z"/>
<path fill="#FF0725" opacity="1.000000" stroke="none" 
	d="
M247.546387,277.523956 
	C243.821442,271.255524 240.096497,264.987091 235.491684,257.237976 
	C237.928528,255.302094 240.638199,253.149475 243.694397,251.019608 
	C244.040924,251.042358 243.996353,250.997818 244.074417,251.242462 
	C244.447372,251.680634 244.742264,251.874146 245.037170,252.067642 
	C245.037170,252.067642 244.992508,251.998688 244.965195,251.968018 
	C249.353226,260.609100 253.486710,269.441528 258.299835,277.886597 
	C260.799866,282.273102 261.331329,285.504883 256.833557,288.618774 
	C255.643417,289.442719 254.818176,290.793732 253.624573,292.127045 
	C245.248184,288.126160 237.086868,284.227966 228.226471,280.160797 
	C225.479965,278.966064 223.432526,277.940308 221.385101,276.914551 
	C221.274857,275.892853 220.681900,274.452637 221.140305,273.923981 
	C222.866821,271.932770 224.935532,270.238281 227.371475,267.971771 
	C233.276810,271.230621 239.597916,274.718903 246.444427,278.537903 
	C247.162033,278.420380 247.354218,277.972168 247.546387,277.523956 
z"/>
<path fill="#F50202" opacity="1.000000" stroke="none" 
	d="
M227.491577,284.141785 
	C228.082352,285.088409 229.170212,286.026855 229.185898,286.982910 
	C229.321426,295.241852 229.263885,303.503967 229.263885,312.031677 
	C224.305237,312.031677 219.914948,312.031677 214.959579,312.031677 
	C214.959579,303.542755 214.781357,295.273193 215.113266,287.024170 
	C215.177948,285.416840 217.225616,283.889282 218.950470,282.393005 
	C220.038498,285.355408 220.864639,287.434143 224.289948,284.936829 
	C225.112900,284.336823 226.411652,284.389374 227.491577,284.141785 
z"/>
<path fill="#FEB32C" opacity="1.000000" stroke="none" 
	d="
M997.410889,238.370148 
	C993.921814,241.891098 989.891907,243.479156 985.065613,239.616943 
	C986.053345,237.364441 987.295410,235.421829 988.436584,233.421661 
	C990.336792,230.091125 991.982300,230.578110 993.741516,233.576813 
	C994.707092,235.222748 995.955994,236.702530 997.410889,238.370148 
z"/>
<path fill="#FEB32C" opacity="1.000000" stroke="none" 
	d="
M1021.219971,254.492096 
	C1016.445435,254.305359 1014.360291,251.333099 1013.847900,246.509705 
	C1023.820801,243.581436 1023.820496,243.581360 1021.326111,253.629639 
	C1021.286560,253.789093 1021.286316,253.958313 1021.219971,254.492096 
z"/>
<path fill="#FEB32C" opacity="1.000000" stroke="none" 
	d="
M966.582825,244.966553 
	C967.326050,249.793854 965.074463,252.977142 960.457642,254.911209 
	C959.812927,252.806061 959.423340,250.703491 959.235840,248.583069 
	C959.101257,247.060699 959.236938,245.514420 959.251953,243.978821 
	C960.785889,244.060104 962.327332,244.075745 963.850708,244.249435 
	C964.655090,244.341141 965.428040,244.708191 966.582825,244.966553 
z"/>
<path fill="#F62A2A" opacity="1.000000" stroke="none" 
	d="
M426.186157,348.260193 
	C427.937805,346.286163 429.858643,344.658051 432.365417,342.533295 
	C432.365417,345.125427 432.365417,346.779572 432.365417,348.844818 
	C433.409943,347.275177 435.514526,346.381653 436.062775,347.330048 
	C435.523987,348.431030 435.144989,349.388153 434.441040,349.884003 
	C432.836212,351.014374 431.100861,352.575653 429.361298,352.651642 
	C428.420044,352.692810 427.361206,350.042328 426.186157,348.260193 
z"/>
<path fill="#FEB32C" opacity="1.000000" stroke="none" 
	d="
M1028.451172,281.939026 
	C1026.143555,278.797638 1026.567749,275.787292 1029.487061,272.882629 
	C1030.723877,273.117737 1031.741211,273.327423 1032.488037,273.893890 
	C1033.573486,274.717194 1035.191284,275.772369 1035.226318,276.775879 
	C1035.259277,277.722137 1033.639771,278.865753 1032.560547,279.673035 
	C1031.408936,280.534607 1030.038696,281.103943 1028.451172,281.939026 
z"/>
<path fill="#FEB32C" opacity="1.000000" stroke="none" 
	d="
M949.943115,272.017670 
	C953.466797,274.026215 954.440552,276.953705 953.176636,280.860474 
	C951.628784,280.372894 950.244873,279.745789 949.085327,278.833374 
	C947.761169,277.791504 946.636841,276.495636 945.425720,275.310120 
	C946.814270,274.254120 948.202820,273.198120 949.943115,272.017670 
z"/>
<path fill="#F93949" opacity="1.000000" stroke="none" 
	d="
M227.338867,283.717773 
	C226.411652,284.389374 225.112900,284.336823 224.289948,284.936829 
	C220.864639,287.434143 220.038498,285.355408 219.267990,282.223755 
	C219.707855,280.526031 220.422058,279.065674 221.260681,277.259949 
	C223.432526,277.940308 225.479965,278.966064 227.905243,280.076233 
	C227.917450,281.205048 227.551819,282.249390 227.338867,283.717773 
z"/>
<path fill="#F50E10" opacity="1.000000" stroke="none" 
	d="
M387.587006,341.429199 
	C386.406830,341.859192 384.787506,342.857666 383.133820,342.918243 
	C377.478943,343.125366 371.811951,343.002960 365.696930,343.008362 
	C366.665497,342.584595 368.076233,341.835999 369.509766,341.789490 
	C375.380096,341.599091 381.257385,341.622833 387.587006,341.429199 
z"/>
<path fill="#FEB32C" opacity="1.000000" stroke="none" 
	d="
M1014.588379,307.806915 
	C1016.381897,305.850433 1018.560608,303.914764 1021.053589,301.960510 
	C1021.500671,302.571686 1021.718140,303.197327 1021.748962,303.832031 
	C1021.821838,305.333038 1021.806152,306.838318 1021.826294,308.341888 
	C1020.324158,308.340271 1018.819031,308.394012 1017.321045,308.314423 
	C1016.532104,308.272461 1015.755615,307.997498 1014.588379,307.806915 
z"/>
<path fill="#FEB32C" opacity="1.000000" stroke="none" 
	d="
M958.509888,302.259216 
	C960.800720,303.213593 963.001770,304.526794 965.294922,306.170593 
	C964.610962,306.787720 963.855103,307.216888 963.054565,307.330292 
	C961.514160,307.548462 959.948425,307.587799 958.393188,307.701324 
	C958.402161,306.006897 958.411194,304.312500 958.509888,302.259216 
z"/>
<path fill="#F52222" opacity="1.000000" stroke="none" 
	d="
M387.028473,348.912598 
	C387.218597,347.471436 387.355652,346.436432 387.999634,345.368713 
	C389.999329,345.562317 391.492035,345.788605 392.984741,346.014923 
	C392.984741,346.014923 393.000000,346.000000 392.956543,346.319458 
	C393.007599,348.338226 393.102142,350.037598 393.196716,351.736938 
	C390.058563,353.669250 387.611877,353.822662 387.028473,348.912598 
z"/>
<path fill="#FEB32C" opacity="1.000000" stroke="none" 
	d="
M986.247742,316.900574 
	C988.323303,316.285217 990.603271,315.985809 993.167725,315.954773 
	C992.259277,317.821686 991.066406,319.420135 989.873535,321.018616 
	C988.733093,319.751221 987.592590,318.483856 986.247742,316.900574 
z"/>
<path fill="#F50E10" opacity="1.000000" stroke="none" 
	d="
M393.518433,351.562195 
	C393.102142,350.037598 393.007599,348.338226 392.948608,346.327026 
	C392.984131,346.015198 393.473328,345.998901 393.895325,346.248108 
	C394.899384,346.665039 395.481384,346.832794 396.063416,347.000580 
	C396.364380,347.386139 396.665344,347.771729 396.989319,348.412903 
	C395.954956,349.574829 394.897552,350.481171 393.518433,351.562195 
z"/>
<path fill="#F93949" opacity="1.000000" stroke="none" 
	d="
M425.208801,328.667450 
	C425.101990,328.030243 424.995178,327.393005 424.994507,326.539001 
	C425.804626,326.454498 426.508545,326.586823 427.771210,327.115906 
	C429.897827,327.992188 431.465698,328.471680 432.652527,328.994690 
	C430.747620,329.076904 429.223816,329.115540 427.283203,329.060272 
	C426.313843,328.866730 425.761322,328.767090 425.208801,328.667450 
z"/>
<path fill="#F50E10" opacity="1.000000" stroke="none" 
	d="
M433.033600,328.951141 
	C431.465698,328.471680 429.897827,327.992188 428.127930,327.207703 
	C429.677948,326.872009 431.429993,326.841278 433.592743,326.963989 
	C433.984802,327.593658 433.966095,328.069946 433.690491,328.856934 
	C433.433594,329.167664 433.033600,328.951141 433.033600,328.951141 
z"/>
<path fill="#F50E10" opacity="1.000000" stroke="none" 
	d="
M377.771545,322.801727 
	C377.015656,323.292419 376.007477,323.652618 374.653442,324.013611 
	C375.378143,323.566650 376.448700,323.118927 377.771545,322.801727 
z"/>
<path fill="#FFFCFC" opacity="1.000000" stroke="none" 
	d="
M307.770264,79.156586 
	C312.203857,78.558334 315.125336,80.113838 317.841644,83.042542 
	C323.041229,88.648697 328.521912,93.998878 333.987244,99.351898 
	C336.993805,102.296669 336.957367,104.982254 333.992676,107.887550 
	C329.359802,112.427650 324.801086,117.043610 320.221924,121.638306 
	C317.763977,124.104584 315.329956,124.142914 312.861877,121.657356 
	C306.533478,115.284149 300.117767,108.994133 293.938934,102.479271 
	C292.839722,101.320259 292.317902,99.264099 292.214417,97.580116 
	C291.969971,93.603165 292.208710,89.599297 292.121063,85.609192 
	C292.018890,80.959290 294.200012,78.898010 298.827148,79.131142 
	C301.647705,79.273254 304.481262,79.156860 307.770264,79.156586 
M302.493591,85.093842 
	C300.877258,85.013924 299.200165,84.673470 297.684967,85.026970 
	C297.277496,85.122025 296.865265,87.610825 297.362640,88.483818 
	C297.849243,89.337959 300.166443,90.221199 300.505493,89.889816 
	C301.596741,88.823288 302.145752,87.201935 302.493591,85.093842 
z"/>
<path fill="#FFFBFB" opacity="1.000000" stroke="none" 
	d="
M81.908760,97.929993 
	C84.551003,90.386414 89.606369,86.717499 96.419495,87.051590 
	C102.553825,87.352394 107.680084,91.563698 109.307953,97.639664 
	C110.983078,103.892029 108.632805,109.987411 102.844215,113.444191 
	C98.237617,116.195114 93.283112,116.220375 88.646980,113.572609 
	C82.772903,110.217827 80.768219,104.892319 81.908760,97.929993 
z"/>
<path fill="#FFFDFD" opacity="1.000000" stroke="none" 
	d="
M692.719849,290.868103 
	C685.892334,294.835144 678.785339,294.687622 671.315430,294.471527 
	C671.315430,273.915619 671.315430,253.581375 671.315430,233.162628 
	C676.076416,233.162628 680.755493,232.651810 685.279297,233.272537 
	C693.809875,234.443054 699.450806,239.584625 701.878662,247.825546 
	C704.914978,258.131927 705.032532,268.674194 701.449951,278.738922 
	C699.876831,283.158386 695.920410,286.729492 692.719849,290.868103 
z"/>
<path fill="#FFFAFB" opacity="1.000000" stroke="none" 
	d="
M1073.376587,269.564117 
	C1074.198853,266.249664 1074.682129,263.263977 1075.778320,260.523468 
	C1077.406128,256.453613 1081.011841,255.137924 1085.092041,255.140015 
	C1089.286011,255.142181 1092.711304,256.886292 1094.029419,261.017456 
	C1097.196899,270.945374 1097.142334,280.998901 1093.984619,290.913940 
	C1092.675659,295.023987 1089.270996,296.866638 1085.047485,296.757263 
	C1080.266113,296.633484 1076.200928,294.386261 1075.279907,289.711823 
	C1074.009277,283.263184 1073.911865,276.583374 1073.376587,269.564117 
z"/>
<path fill="#FEEEEC" opacity="1.000000" stroke="none" 
	d="
M981.590576,262.316284 
	C988.474060,259.605255 992.926514,261.154694 994.949036,266.630859 
	C997.415466,273.308655 995.417419,279.986603 989.929688,281.054260 
	C987.116821,281.601501 983.020569,280.887268 981.012695,279.073456 
	C977.368347,275.781342 977.270020,270.802856 978.772583,266.141144 
	C979.201538,264.810242 980.406677,263.729492 981.590576,262.316284 
M989.470032,266.119415 
	C986.773132,264.277649 983.642517,264.355560 983.174377,267.600800 
	C982.746155,270.569672 983.691223,274.543793 985.570435,276.783203 
	C987.077515,278.579224 990.621033,277.291412 990.927673,274.033203 
	C991.150635,271.663544 990.327393,269.195465 989.470032,266.119415 
z"/>
<path fill="#FEEAE7" opacity="1.000000" stroke="none" 
	d="
M969.830078,273.455780 
	C966.996765,273.858948 964.530518,274.468353 961.538208,275.207703 
	C961.538208,271.288879 961.538208,267.908295 961.538208,264.008087 
	C964.370911,263.677429 967.285095,263.177917 970.212158,263.085754 
	C971.180847,263.055237 972.182556,264.074127 973.169189,264.613220 
	C972.310059,265.366852 971.566589,266.457092 970.566528,266.800964 
	C968.729675,267.432465 966.741638,267.624359 965.248474,269.007599 
	C968.338257,269.956543 971.582825,270.595276 974.435852,272.018707 
	C975.467224,272.533264 975.975098,274.921173 976.001709,276.466644 
	C976.073608,280.639618 973.492432,282.892609 969.609558,283.452820 
	C965.349731,284.067505 962.261597,282.496307 960.687622,276.905090 
	C962.902588,277.471344 964.260498,277.887848 965.647156,278.154663 
	C967.233582,278.459930 968.845581,278.632019 970.446411,278.862000 
	C970.363342,277.128662 970.280212,275.395355 969.830078,273.455780 
z"/>
<path fill="#FEEAE7" opacity="1.000000" stroke="none" 
	d="
M1009.986816,271.962830 
	C1009.025696,274.623260 1010.431091,278.833618 1004.986755,279.226501 
	C1005.753784,275.516113 1006.434570,272.222748 1006.899536,269.973602 
	C1003.941956,269.821136 1000.605042,270.609131 999.091003,269.295715 
	C997.634216,268.032013 997.479065,264.486908 997.909119,262.157867 
	C998.124329,260.992554 1001.922729,259.184235 1002.375549,259.590302 
	C1004.482910,261.480042 1005.987366,264.042084 1007.887085,266.605804 
	C1010.219360,265.526794 1007.002502,259.027283 1013.263000,259.019348 
	C1012.589661,262.368927 1011.982422,265.389404 1011.720398,268.717957 
	C1012.065613,269.026031 1012.049683,268.960907 1011.692078,268.883911 
	C1011.077087,269.220367 1010.819702,269.633820 1010.393066,270.244659 
	C1010.144897,270.948975 1010.065857,271.455902 1009.986816,271.962830 
z"/>
<path fill="#FEA71F" opacity="1.000000" stroke="none" 
	d="
M980.747070,300.768921 
	C974.915161,299.611664 972.016541,296.535736 972.455200,292.420715 
	C972.876404,288.469452 976.273193,285.772980 980.518250,286.030731 
	C984.155884,286.251617 986.356995,288.218567 986.972168,291.744263 
	C987.796875,296.470459 985.438721,299.268341 980.747070,300.768921 
M981.944092,296.800354 
	C984.565369,294.490570 984.971497,291.772217 981.956055,289.919037 
	C980.814636,289.217590 977.652832,290.026459 976.669312,291.200317 
	C974.331360,293.990723 976.561646,296.708862 981.944092,296.800354 
z"/>
<path fill="#FDDDDA" opacity="1.000000" stroke="none" 
	d="
M1010.341003,272.065002 
	C1010.065857,271.455902 1010.144897,270.948975 1010.733521,270.222260 
	C1011.511963,269.655304 1011.780823,269.308105 1012.049683,268.960907 
	C1012.049683,268.960907 1012.065613,269.026031 1012.044678,269.051392 
	C1016.868652,266.314972 1020.192932,267.323730 1020.914978,271.886963 
	C1021.382629,274.841858 1021.028381,277.663757 1017.545166,278.604889 
	C1014.091919,279.537933 1012.341431,277.555542 1011.412231,274.515686 
	C1011.172974,273.732910 1010.934204,272.950012 1010.341003,272.065002 
z"/>
<path fill="#FEA71F" opacity="1.000000" stroke="none" 
	d="
M1004.213684,287.026978 
	C1004.119019,287.945587 1004.142090,289.140778 1004.705444,289.508545 
	C1005.465027,290.004547 1006.640564,289.863647 1007.748413,290.010773 
	C1005.746338,292.402588 1004.062622,294.414032 1002.378906,296.425507 
	C999.825500,297.446716 998.418701,292.822052 999.596985,284.420654 
	C1002.085022,284.420654 1004.633728,284.420654 1007.182434,284.420654 
	C1007.338013,284.703430 1007.493652,284.986206 1007.649231,285.268982 
	C1006.623535,285.824280 1005.597778,286.379608 1004.213684,287.026978 
z"/>
<path fill="#FEA71F" opacity="1.000000" stroke="none" 
	d="
M989.537476,297.064026 
	C989.327942,293.405121 989.327942,290.115845 989.327942,286.310425 
	C991.640991,286.032135 993.983521,285.750336 996.326050,285.468506 
	C996.433167,285.920349 996.540283,286.372162 996.647461,286.824005 
	C995.177063,287.491394 993.706726,288.158752 991.028687,289.374298 
	C993.514282,290.398468 995.054932,291.033264 995.755920,291.322083 
	C994.753662,293.499451 993.968872,295.635681 992.765564,297.501953 
	C992.480469,297.944122 990.790588,297.480560 989.537476,297.064026 
z"/>
<path fill="#FEEAE7" opacity="1.000000" stroke="none" 
	d="
M408.990112,324.982666 
	C410.466980,324.234863 411.943848,323.487061 413.802185,323.197449 
	C413.558746,325.885742 412.933868,328.115784 412.308990,330.345856 
	C412.962311,330.504822 413.615601,330.663818 414.268890,330.822784 
	C414.840424,328.212799 415.411957,325.602814 415.983521,322.992828 
	C417.566193,323.276855 419.148895,323.560852 420.552551,324.328033 
	C420.258331,324.942657 420.143188,325.074127 420.028076,325.205566 
	C419.592346,325.883057 419.156616,326.560577 419.096283,327.541656 
	C419.609772,328.236511 419.747833,328.627838 419.885925,329.019135 
	C419.646973,329.185059 419.437805,329.382568 418.786438,329.803345 
	C416.486664,331.458771 416.365753,332.535278 418.993469,332.988220 
	C419.058014,333.158997 419.122589,333.329742 419.112244,333.984009 
	C419.000305,334.630829 418.963257,334.794098 418.926208,334.957367 
	C418.926208,334.957367 418.995453,334.994690 418.564148,335.020508 
	C416.756897,335.029602 415.380981,335.012909 413.940796,334.668884 
	C413.786133,333.747467 413.695709,333.153412 413.605286,332.559387 
	C413.419525,332.573273 413.233765,332.587189 413.047974,332.601074 
	C412.938965,333.329559 412.829926,334.058075 412.337891,334.874329 
	C410.395142,334.911255 408.835388,334.860443 407.394928,334.461823 
	C408.006165,331.070251 408.498138,328.026489 408.990112,324.982666 
z"/>
<path fill="#FA455B" opacity="1.000000" stroke="none" 
	d="
M406.813477,342.907074 
	C405.684540,342.805298 404.555603,342.703522 403.157867,342.187958 
	C403.375549,340.351898 403.862030,338.929626 404.348511,337.507385 
	C404.061218,337.382568 403.773926,337.257782 403.486633,337.132965 
	C402.860718,337.966309 402.234802,338.799622 401.512512,339.761230 
	C401.245575,338.816132 401.028809,338.048523 401.083191,338.241089 
	C399.079315,337.598389 398.023071,337.259613 397.234070,336.588440 
	C404.645020,336.215118 411.788757,336.174194 418.932526,336.133301 
	C418.621216,337.177521 418.309906,338.221741 417.630920,339.615845 
	C416.394806,339.706390 415.526276,339.446991 414.389679,339.107544 
	C414.290588,340.219910 414.210602,341.117767 414.130646,342.015594 
	C412.382782,342.342010 410.634888,342.668427 408.447144,342.704651 
	C407.894379,342.151855 407.781525,341.889282 407.668701,341.626709 
	C407.383606,342.053497 407.098541,342.480286 406.813477,342.907074 
M410.998962,340.239319 
	C410.588684,340.385101 410.178375,340.530884 409.768066,340.676636 
	C410.295074,340.649323 410.822083,340.622009 410.998962,340.239319 
z"/>
<path fill="#FEEEEC" opacity="1.000000" stroke="none" 
	d="
M401.962097,322.780579 
	C403.919006,323.259888 405.875946,323.739227 407.799072,324.940002 
	C407.120270,328.731415 406.475281,331.801422 405.417603,334.946960 
	C403.117859,335.022522 401.230743,335.022522 399.139801,335.022522 
	C399.340942,333.462677 399.464966,332.501068 399.758759,331.196625 
	C400.606415,328.162720 401.284241,325.471649 401.962097,322.780579 
z"/>
<path fill="#FFF6F7" opacity="1.000000" stroke="none" 
	d="
M432.652527,328.994690 
	C433.033600,328.951141 433.433594,329.167664 433.656433,329.212830 
	C434.461029,331.449127 435.042847,333.640289 434.888733,336.025696 
	C431.749969,336.219971 429.347107,336.219971 426.805359,336.219971 
	C426.917908,333.957794 426.990845,332.491455 427.177002,330.713654 
	C427.426819,329.986206 427.563416,329.570221 427.700012,329.154205 
	C429.223816,329.115540 430.747620,329.076904 432.652527,328.994690 
z"/>
<path fill="#FEC0CA" opacity="1.000000" stroke="none" 
	d="
M396.966858,336.920837 
	C398.023071,337.259613 399.079315,337.598389 401.083191,338.241089 
	C401.028809,338.048523 401.245575,338.816132 401.512512,339.761230 
	C402.234802,338.799622 402.860718,337.966309 403.486633,337.132965 
	C403.773926,337.257782 404.061218,337.382568 404.348511,337.507385 
	C403.862030,338.929626 403.375549,340.351898 402.742004,342.088806 
	C400.830933,342.442200 399.066895,342.480865 396.709351,342.363739 
	C395.751221,342.241333 395.386536,342.274750 395.021881,342.308167 
	C394.584442,342.358765 394.147003,342.409363 393.145142,342.370392 
	C392.383087,342.195923 392.185455,342.111023 391.987793,342.026093 
	C392.303894,340.374451 392.619995,338.722839 393.320312,336.687531 
	C394.791962,336.509521 395.879425,336.715179 396.966858,336.920837 
z"/>
<path fill="#FEEAE7" opacity="1.000000" stroke="none" 
	d="
M393.040131,334.895905 
	C393.405457,332.927948 393.770782,330.959991 394.270569,328.465454 
	C394.588989,327.669067 394.589844,327.398712 394.407623,327.127777 
	C394.912537,324.491425 395.452179,321.892700 399.619568,323.161011 
	C397.800751,325.252716 398.004242,327.395966 398.515198,329.761108 
	C395.546692,330.628693 397.890137,336.398224 393.040131,334.895905 
z"/>
<path fill="#F50E10" opacity="1.000000" stroke="none" 
	d="
M393.054199,335.268921 
	C397.890137,336.398224 395.546692,330.628693 398.673523,330.234131 
	C399.333954,330.925049 399.461456,331.232239 399.588959,331.539429 
	C399.464966,332.501068 399.340942,333.462677 399.139801,335.022522 
	C401.230743,335.022522 403.117859,335.022522 405.778900,334.930969 
	C406.793762,334.829498 407.034698,334.819550 407.275665,334.809601 
	C408.835388,334.860443 410.395142,334.911255 412.650513,334.979187 
	C413.565826,334.996277 413.785431,334.996277 414.005066,334.996246 
	C415.380981,335.012909 416.756897,335.029602 418.541931,334.988037 
	C418.955872,335.130127 418.960693,335.330475 418.949036,335.832031 
	C411.788757,336.174194 404.645020,336.215118 397.234070,336.588440 
	C395.879425,336.715179 394.791962,336.509521 393.426697,336.343994 
	C393.122009,336.136719 393.095154,335.889343 393.054199,335.268921 
z"/>
<path fill="#F93949" opacity="1.000000" stroke="none" 
	d="
M427.063812,331.025116 
	C426.990845,332.491455 426.917908,333.957794 426.805359,336.219971 
	C429.347107,336.219971 431.749969,336.219971 434.591736,336.226807 
	C432.008148,336.429199 428.985626,336.624756 425.498413,336.529938 
	C424.727539,335.770477 424.421326,335.301361 424.115082,334.832275 
	C424.115082,334.832275 424.241638,334.479370 424.403809,334.171814 
	C424.618896,333.745972 424.745789,333.594910 424.710663,333.515594 
	C424.610107,333.288574 424.443878,333.090668 424.303467,332.881317 
	C424.360657,332.021484 424.417816,331.161682 424.998352,330.231812 
	C426.035706,330.449554 426.549744,330.737335 427.063812,331.025116 
z"/>
<path fill="#FA455B" opacity="1.000000" stroke="none" 
	d="
M407.394928,334.461823 
	C407.034698,334.819550 406.793762,334.829498 406.191589,334.855408 
	C406.475281,331.801422 407.120270,328.731415 407.922791,325.313477 
	C408.080292,324.965515 408.534332,325.017548 408.762238,325.000122 
	C408.498138,328.026489 408.006165,331.070251 407.394928,334.461823 
z"/>
<path fill="#F93949" opacity="1.000000" stroke="none" 
	d="
M415.693604,322.954498 
	C415.411957,325.602814 414.840424,328.212799 414.268890,330.822784 
	C413.615601,330.663818 412.962311,330.504822 412.308990,330.345856 
	C412.933868,328.115784 413.558746,325.885742 414.212341,323.266846 
	C414.628601,322.890717 415.016174,322.903442 415.693604,322.954498 
z"/>
<path fill="#F93949" opacity="1.000000" stroke="none" 
	d="
M399.758759,331.196625 
	C399.461456,331.232239 399.333954,330.925049 399.048096,330.144836 
	C398.004242,327.395966 397.800751,325.252716 400.050659,323.213989 
	C400.575623,322.687561 401.121948,322.537750 401.815186,322.584229 
	C401.284241,325.471649 400.606415,328.162720 399.758759,331.196625 
z"/>
<path fill="#F50E10" opacity="1.000000" stroke="none" 
	d="
M414.497375,342.008575 
	C414.210602,341.117767 414.290588,340.219910 414.389679,339.107544 
	C415.526276,339.446991 416.394806,339.706390 417.617188,339.949738 
	C416.935394,340.622986 415.899750,341.312256 414.497375,342.008575 
z"/>
<path fill="#F50E10" opacity="1.000000" stroke="none" 
	d="
M424.033997,335.186432 
	C424.421326,335.301361 424.727539,335.770477 425.058044,336.520569 
	C424.498077,337.853546 423.913849,338.905518 423.329620,339.957489 
	C422.880585,339.696320 422.431580,339.435150 421.982544,339.174011 
	C422.639343,337.962860 423.296143,336.751740 424.033997,335.186432 
z"/>
<path fill="#F50E10" opacity="1.000000" stroke="none" 
	d="
M392.993927,345.775970 
	C391.492035,345.788605 389.999329,345.562317 388.253418,345.172241 
	C388.756470,344.671722 389.512787,344.334930 390.779968,344.243347 
	C391.866211,344.678711 392.441528,344.868835 393.016846,345.058960 
	C393.016846,345.058960 393.003113,345.537018 392.993927,345.775970 
z"/>
<path fill="#F50E10" opacity="1.000000" stroke="none" 
	d="
M418.899597,332.735046 
	C416.365753,332.535278 416.486664,331.458771 418.660339,329.979156 
	C418.939453,330.802826 418.872589,331.642334 418.899597,332.735046 
z"/>
<path fill="#F52222" opacity="1.000000" stroke="none" 
	d="
M393.032898,344.760437 
	C392.441528,344.868835 391.866211,344.678711 391.112305,344.235779 
	C391.204346,343.497437 391.475037,343.011963 391.866760,342.276276 
	C392.185455,342.111023 392.383087,342.195923 392.834198,342.481384 
	C393.074768,343.275299 393.061859,343.868622 393.032898,344.760437 
z"/>
<path fill="#F50E10" opacity="1.000000" stroke="none" 
	d="
M427.177002,330.713654 
	C426.549744,330.737335 426.035706,330.449554 425.255676,330.021088 
	C425.015137,329.677521 425.040649,329.474640 425.137451,328.969604 
	C425.761322,328.767090 426.313843,328.866730 427.283203,329.060272 
	C427.563416,329.570221 427.426819,329.986206 427.177002,330.713654 
z"/>
<path fill="#F50E10" opacity="1.000000" stroke="none" 
	d="
M424.077850,332.982391 
	C424.443878,333.090668 424.610107,333.288574 424.710663,333.515594 
	C424.745789,333.594910 424.618896,333.745972 424.414825,333.984680 
	C424.030701,333.896057 423.785828,333.697449 423.580811,333.463867 
	C423.557312,333.437073 423.756378,333.214966 424.077850,332.982391 
z"/>
<path fill="#F50E10" opacity="1.000000" stroke="none" 
	d="
M420.139648,328.843262 
	C419.747833,328.627838 419.609772,328.236511 419.377319,327.548279 
	C419.653076,327.723358 420.023224,328.195343 420.139648,328.843262 
z"/>
<path fill="#F52222" opacity="1.000000" stroke="none" 
	d="
M395.885986,346.745789 
	C395.481384,346.832794 394.899384,346.665039 394.140015,346.242737 
	C394.544647,346.155762 395.126617,346.323364 395.885986,346.745789 
z"/>
<path fill="#F50E10" opacity="1.000000" stroke="none" 
	d="
M407.129822,342.932831 
	C407.098541,342.480286 407.383606,342.053497 407.668701,341.626709 
	C407.781525,341.889282 407.894379,342.151855 408.044098,342.689331 
	C407.869354,342.962372 407.657745,342.960480 407.129822,342.932831 
z"/>
<path fill="#F50E10" opacity="1.000000" stroke="none" 
	d="
M420.184326,325.327759 
	C420.143188,325.074127 420.258331,324.942657 420.610504,324.699188 
	C420.678528,324.874786 420.509552,325.162384 420.184326,325.327759 
z"/>
<path fill="#F52222" opacity="1.000000" stroke="none" 
	d="
M395.455261,344.534241 
	C395.426727,344.483795 395.483795,344.584656 395.455261,344.534241 
z"/>
<path fill="#F52222" opacity="1.000000" stroke="none" 
	d="
M395.240051,342.484070 
	C395.386536,342.274750 395.751221,342.241333 396.336761,342.437683 
	C396.191162,342.664978 395.824707,342.662476 395.240051,342.484070 
z"/>
<path fill="#F50E10" opacity="1.000000" stroke="none" 
	d="
M419.101440,334.917297 
	C418.963257,334.794098 419.000305,334.630829 419.166626,334.252350 
	C419.380768,334.242096 419.486969,334.442169 419.535278,334.655365 
	C419.546997,334.707123 419.367981,334.802094 419.101440,334.917297 
z"/>
<path fill="#F50E10" opacity="1.000000" stroke="none" 
	d="
M394.293549,327.290405 
	C394.589844,327.398712 394.588989,327.669067 394.249695,328.087158 
	C394.041321,327.965729 394.069702,327.704926 394.293549,327.290405 
z"/>
<path fill="#FFF6F7" opacity="1.000000" stroke="none" 
	d="
M294.860840,232.443878 
	C291.101288,228.389557 287.596069,224.613281 283.312775,219.998795 
	C285.629822,218.892151 288.323914,216.472504 290.843567,216.642212 
	C295.807129,216.976547 299.560913,220.622849 300.806732,225.244614 
	C301.557800,228.031006 299.888306,231.469864 299.085052,235.812866 
	C296.789307,234.025421 295.952209,233.373672 294.860840,232.443878 
z"/>
<path fill="#FFFFFF" opacity="1.000000" stroke="none" 
	d="
M245.159027,251.731461 
	C244.742264,251.874146 244.447372,251.680634 244.049896,251.222702 
	C244.391846,251.103943 244.836365,251.249603 245.159027,251.731461 
z"/>
<path fill="#FFFFFF" opacity="1.000000" stroke="none" 
	d="
M271.471069,253.663177 
	C271.176331,253.647095 270.944916,253.517792 270.659546,253.108856 
	C270.649231,252.728760 270.756165,252.515045 271.070465,252.008972 
	C271.522858,251.952057 271.767822,252.187500 271.875824,252.855591 
	C271.738831,253.288239 271.471069,253.663177 271.471069,253.663177 
z"/>
<path fill="#FFFFFF" opacity="1.000000" stroke="none" 
	d="
M271.896179,253.119965 
	C272.252502,253.248642 272.451508,253.545593 272.650482,253.842529 
	C272.409515,253.883347 272.168518,253.924164 271.699310,253.814087 
	C271.471069,253.663177 271.738831,253.288239 271.896179,253.119965 
z"/>
<path fill="#FFFFFF" opacity="1.000000" stroke="none" 
	d="
M247.292908,277.750732 
	C247.354218,277.972168 247.162033,278.420380 246.765900,278.665283 
	C246.721115,278.300446 246.880264,278.138947 247.292908,277.750732 
z"/>
<path fill="#FF0826" opacity="1.000000" stroke="none" 
	d="
M302.698730,85.444183 
	C302.145752,87.201935 301.596741,88.823288 300.505493,89.889816 
	C300.166443,90.221199 297.849243,89.337959 297.362640,88.483818 
	C296.865265,87.610825 297.277496,85.122025 297.684967,85.026970 
	C299.200165,84.673470 300.877258,85.013924 302.698730,85.444183 
z"/>
<path fill="#F4473A" opacity="1.000000" stroke="none" 
	d="
M989.720337,266.445343 
	C990.327393,269.195465 991.150635,271.663544 990.927673,274.033203 
	C990.621033,277.291412 987.077515,278.579224 985.570435,276.783203 
	C983.691223,274.543793 982.746155,270.569672 983.174377,267.600800 
	C983.642517,264.355560 986.773132,264.277649 989.720337,266.445343 
z"/>
<path fill="#F33C2E" opacity="1.000000" stroke="none" 
	d="
M1011.692078,268.883911 
	C1011.780823,269.308105 1011.511963,269.655304 1010.902710,270.024872 
	C1010.819702,269.633820 1011.077087,269.220367 1011.692078,268.883911 
z"/>
<path fill="#F33C2E" opacity="1.000000" stroke="none" 
	d="
M981.554138,296.905762 
	C976.561646,296.708862 974.331360,293.990723 976.669312,291.200317 
	C977.652832,290.026459 980.814636,289.217590 981.956055,289.919037 
	C984.971497,291.772217 984.565369,294.490570 981.554138,296.905762 
z"/>
<path fill="#FA455B" opacity="1.000000" stroke="none" 
	d="
M413.940796,334.668884 
	C413.785431,334.996277 413.565826,334.996277 413.033539,334.891418 
	C412.829926,334.058075 412.938965,333.329559 413.047974,332.601074 
	C413.233765,332.587189 413.419525,332.573273 413.605286,332.559387 
	C413.695709,333.153412 413.786133,333.747467 413.940796,334.668884 
z"/>
<path fill="#F50E10" opacity="1.000000" stroke="none" 
	d="
M411.174011,340.416992 
	C410.822083,340.622009 410.295074,340.649323 409.768066,340.676666 
	C410.178375,340.530884 410.588684,340.385101 411.174011,340.416992 
z"/>
</svg>